<?xml version="1.0" encoding="utf-8"?>
<!-- Generator: Adobe Illustrator 15.1.0, SVG Export Plug-In . SVG Version: 6.00 Build 0)  -->
<!DOCTYPE svg PUBLIC "-//W3C//DTD SVG 1.1//EN" "http://www.w3.org/Graphics/SVG/1.1/DTD/svg11.dtd">
<svg version="1.1" id="Camada_1" xmlns="http://www.w3.org/2000/svg"
	xmlns:xlink="http://www.w3.org/1999/xlink" x="0px" y="0px"
	width="832.892px" height="177.149px" viewBox="0 0 832.892 177.149"
	enable-background="new 0 0 832.892 177.149"
	xml:space="preserve">
<rect y="2" fill-rule="evenodd" clip-rule="evenodd" width="830.892" height="175.149"
		fill="#00000000" />
<path fill="#009640" d="M143.313,55.169c1.011-2.232,1.573-4.708,1.573-7.317c0-9.812-7.954-17.765-17.766-17.765
	c-9.812,0-17.767,7.954-17.767,17.765c0,2.614,0.565,5.096,1.579,7.33c-8.857,1.006-15.739,8.524-15.739,17.651
	c0,9.812,7.954,17.765,17.767,17.765c3.821,0,7.361-1.206,10.26-3.26h7.924c2.898,2.054,6.438,3.26,10.26,3.26
	c9.813,0,17.766-7.954,17.766-17.765C159.169,63.666,152.227,56.121,143.313,55.169 M56.215,140.811
	c9.712-3.078,43.387-10.422,125.012-0.478c92.261,11.239,122.042,0.434,125.778-1.143v3.968
	c-7.914,2.764-40.844,11.273-126.215,0.873c-85.783-10.45-117.537-1.842-124.575,0.685V140.811z"/>
<path fill="#FFFFFF" d="M764.915,117.97c0.005-0.45,0.14-0.81,0.396-1.085c0.262-0.274,0.612-0.472,1.054-0.594
	c0.441-0.126,0.941-0.189,1.494-0.185c0.364,0,0.721,0.014,1.067,0.031c0.347,0.019,0.675,0.036,0.985,0.05
	c0,0.414-0.072,0.819-0.211,1.215c-0.135,0.392-0.338,0.747-0.599,1.063c-0.262,0.32-0.577,0.571-0.945,0.757
	c-0.369,0.188-0.783,0.283-1.242,0.288c-0.383,0-0.725-0.063-1.022-0.186c-0.302-0.121-0.535-0.292-0.711-0.521
	C765.005,118.573,764.92,118.294,764.915,117.97 M774.719,122.426c-0.104-0.554-0.176-1.107-0.217-1.661
	c-0.035-0.554-0.054-1.106-0.054-1.661v-5.238c-0.004-1.071-0.189-1.977-0.54-2.724c-0.355-0.747-0.842-1.346-1.463-1.805
	c-0.616-0.455-1.328-0.788-2.134-0.999c-0.801-0.207-1.655-0.311-2.561-0.306c-1.035-0.005-2.017,0.075-2.939,0.233
	c-0.927,0.162-1.818,0.414-2.679,0.766l0.081,3.295c0.681-0.374,1.4-0.645,2.161-0.812c0.761-0.166,1.534-0.247,2.322-0.243
	c0.594-0.004,1.13,0.064,1.606,0.203c0.482,0.145,0.865,0.392,1.153,0.747c0.287,0.352,0.44,0.847,0.454,1.481
	c-0.315-0.055-0.675-0.1-1.071-0.136c-0.4-0.036-0.797-0.054-1.196-0.054c-0.438-0.005-0.919,0.018-1.441,0.059
	c-0.518,0.04-1.053,0.117-1.593,0.234c-0.545,0.113-1.067,0.283-1.571,0.499c-0.504,0.221-0.954,0.509-1.354,0.86
	c-0.396,0.354-0.716,0.787-0.945,1.31c-0.234,0.518-0.355,1.135-0.36,1.846c0.005,0.761,0.148,1.422,0.433,1.98
	c0.283,0.558,0.666,1.017,1.156,1.377c0.49,0.364,1.054,0.63,1.679,0.811c0.631,0.176,1.297,0.261,1.999,0.261
	c0.661,0,1.265-0.091,1.796-0.27c0.535-0.181,1.021-0.455,1.458-0.829c0.437-0.378,0.837-0.855,1.202-1.44h0.054
	c0.005,0.365,0.019,0.729,0.045,1.099c0.027,0.365,0.05,0.738,0.063,1.116H774.719z M753.681,115.243
	c0,0.752-0.122,1.414-0.355,1.977c-0.233,0.566-0.571,1.008-1.009,1.323c-0.436,0.314-0.963,0.477-1.58,0.48
	c-0.544-0.004-1.044-0.166-1.489-0.477c-0.445-0.306-0.806-0.734-1.071-1.27c-0.266-0.54-0.405-1.156-0.409-1.846
	c0.004-0.706,0.13-1.336,0.373-1.89c0.248-0.549,0.59-0.981,1.035-1.302c0.446-0.314,0.964-0.477,1.562-0.481
	c0.474,0.005,0.892,0.1,1.256,0.284c0.369,0.185,0.676,0.437,0.928,0.761c0.247,0.319,0.437,0.693,0.567,1.107
	C753.617,114.33,753.681,114.774,753.681,115.243z M742.905,128.097h4.861v-7.643h0.054c0.311,0.554,0.707,1.004,1.184,1.342
	c0.478,0.333,0.999,0.58,1.566,0.729c0.563,0.153,1.135,0.23,1.706,0.226c1.049-0.01,1.972-0.207,2.772-0.604
	c0.797-0.4,1.468-0.945,2.012-1.646c0.54-0.698,0.95-1.504,1.229-2.422c0.275-0.914,0.415-1.895,0.415-2.943
	c0-0.685-0.086-1.369-0.253-2.044c-0.171-0.68-0.418-1.323-0.747-1.926c-0.328-0.608-0.738-1.144-1.224-1.612
	c-0.486-0.472-1.045-0.842-1.679-1.111c-0.635-0.267-1.342-0.405-2.12-0.409c-0.743,0-1.454,0.099-2.125,0.306
	c-0.675,0.202-1.278,0.513-1.818,0.937c-0.535,0.423-0.968,0.962-1.297,1.62h-0.054v-2.539h-4.482V128.097z M716.007,122.426h4.861
	v-5.941c0.004-1.508,0.247-2.619,0.729-3.335c0.482-0.716,1.157-1.071,2.025-1.066c0.46,0.004,0.829,0.126,1.116,0.364
	c0.289,0.242,0.496,0.571,0.631,0.985c0.135,0.419,0.198,0.896,0.198,1.432v7.562h4.86v-5.941c0.01-1.508,0.253-2.619,0.73-3.335
	c0.48-0.716,1.156-1.071,2.025-1.066c0.458,0.004,0.832,0.126,1.115,0.364c0.288,0.242,0.499,0.571,0.631,0.985
	c0.135,0.419,0.202,0.896,0.197,1.432v7.562h4.861v-8.291c0.005-0.954-0.063-1.809-0.207-2.561s-0.396-1.392-0.757-1.918
	c-0.363-0.526-0.867-0.932-1.521-1.206c-0.648-0.279-1.477-0.418-2.485-0.418c-0.67,0-1.313,0.09-1.931,0.278
	c-0.616,0.189-1.188,0.481-1.71,0.883c-0.521,0.396-0.973,0.909-1.354,1.539c-0.257-0.612-0.599-1.116-1.031-1.517
	c-0.437-0.401-0.937-0.698-1.508-0.892c-0.572-0.198-1.192-0.292-1.863-0.292c-0.743,0-1.44,0.099-2.098,0.306
	s-1.247,0.521-1.765,0.954c-0.518,0.432-0.94,0.98-1.27,1.656h-0.054v-2.593h-4.429V122.426z M703.368,117.97
	c0.004-0.45,0.14-0.81,0.396-1.085c0.262-0.274,0.612-0.472,1.054-0.594c0.44-0.126,0.94-0.189,1.493-0.185
	c0.365,0,0.721,0.014,1.068,0.031c0.346,0.019,0.675,0.036,0.985,0.05c0,0.414-0.072,0.819-0.211,1.215
	c-0.136,0.392-0.338,0.747-0.6,1.063c-0.261,0.32-0.576,0.571-0.945,0.757c-0.369,0.188-0.782,0.283-1.242,0.288
	c-0.383,0-0.725-0.063-1.021-0.186c-0.302-0.121-0.536-0.292-0.712-0.521C703.458,118.573,703.372,118.294,703.368,117.97z
	 M713.171,122.426c-0.104-0.554-0.175-1.107-0.216-1.661c-0.036-0.554-0.055-1.106-0.055-1.661v-5.238
	c-0.004-1.071-0.188-1.977-0.54-2.724c-0.354-0.747-0.841-1.346-1.462-1.805c-0.617-0.455-1.328-0.788-2.134-0.999
	c-0.801-0.207-1.656-0.311-2.561-0.306c-1.035-0.005-2.017,0.075-2.939,0.233c-0.928,0.162-1.818,0.414-2.679,0.766l0.081,3.295
	c0.68-0.374,1.4-0.645,2.161-0.812c0.76-0.166,1.534-0.247,2.322-0.243c0.594-0.004,1.13,0.064,1.607,0.203
	c0.481,0.145,0.864,0.392,1.152,0.747c0.287,0.352,0.44,0.847,0.454,1.481c-0.315-0.055-0.675-0.1-1.071-0.136
	c-0.401-0.036-0.797-0.054-1.197-0.054c-0.437-0.005-0.919,0.018-1.44,0.059c-0.518,0.04-1.053,0.117-1.594,0.234
	c-0.545,0.113-1.066,0.283-1.57,0.499c-0.504,0.221-0.954,0.509-1.355,0.86c-0.396,0.354-0.715,0.787-0.944,1.31
	c-0.234,0.518-0.356,1.135-0.36,1.846c0.004,0.761,0.148,1.422,0.432,1.98c0.283,0.558,0.666,1.017,1.156,1.377
	c0.491,0.364,1.054,0.63,1.68,0.811c0.631,0.176,1.296,0.261,1.998,0.261c0.662,0,1.266-0.091,1.796-0.27
	c0.536-0.181,1.022-0.455,1.459-0.829c0.437-0.378,0.837-0.855,1.201-1.44h0.055c0.004,0.365,0.018,0.729,0.044,1.099
	c0.027,0.365,0.051,0.738,0.063,1.116H713.171z M688.002,107.14h1.296c0.58-0.004,1.107,0.072,1.575,0.23
	c0.463,0.162,0.837,0.428,1.112,0.796c0.273,0.374,0.413,0.878,0.418,1.513c-0.005,0.652-0.145,1.17-0.418,1.548
	c-0.275,0.379-0.649,0.649-1.112,0.812c-0.468,0.161-0.995,0.237-1.575,0.233h-1.296V107.14z M682.979,122.426h5.023v-6.59h1.943
	c1.572-0.004,2.917-0.247,4.029-0.729c1.111-0.481,1.967-1.175,2.557-2.08c0.594-0.904,0.891-1.993,0.895-3.268
	c0.01-2.11-0.684-3.673-2.07-4.681c-1.386-1.008-3.516-1.513-6.382-1.503h-5.995V122.426z M664.209,119.347
	c-0.559-0.004-1.039-0.112-1.44-0.324c-0.4-0.211-0.725-0.499-0.981-0.868c-0.252-0.364-0.44-0.783-0.558-1.256
	c-0.121-0.472-0.18-0.972-0.18-1.494c0-0.53,0.059-1.035,0.18-1.508c0.117-0.478,0.306-0.9,0.558-1.27
	c0.257-0.368,0.581-0.657,0.981-0.869c0.401-0.211,0.882-0.318,1.44-0.324c0.559,0.006,1.039,0.113,1.441,0.324
	c0.399,0.212,0.724,0.501,0.98,0.869c0.252,0.369,0.441,0.792,0.559,1.27c0.121,0.473,0.18,0.978,0.18,1.508
	c0,0.522-0.059,1.022-0.18,1.494c-0.117,0.473-0.307,0.892-0.559,1.256c-0.257,0.369-0.581,0.657-0.98,0.868
	C665.248,119.235,664.768,119.343,664.209,119.347z M664.209,122.75c1.166,0,2.246-0.166,3.241-0.495
	c0.99-0.329,1.854-0.806,2.593-1.436c0.737-0.631,1.314-1.4,1.724-2.31c0.409-0.904,0.62-1.944,0.626-3.105
	c-0.006-1.17-0.217-2.211-0.626-3.124c-0.409-0.914-0.986-1.683-1.724-2.313c-0.738-0.634-1.603-1.111-2.593-1.44
	c-0.995-0.328-2.075-0.494-3.241-0.494s-2.246,0.166-3.236,0.494c-0.994,0.329-1.859,0.807-2.597,1.44
	c-0.738,0.631-1.314,1.399-1.724,2.313c-0.41,0.913-0.622,1.954-0.626,3.124c0.004,1.161,0.216,2.201,0.626,3.105
	c0.409,0.909,0.985,1.679,1.724,2.31c0.737,0.63,1.603,1.106,2.597,1.436C661.963,122.584,663.043,122.75,664.209,122.75z
	 M643.01,115.243c0-0.469,0.063-0.913,0.193-1.332c0.131-0.414,0.319-0.788,0.566-1.107c0.252-0.324,0.563-0.576,0.928-0.761
	c0.364-0.185,0.783-0.279,1.256-0.284c0.599,0.005,1.12,0.167,1.562,0.478c0.445,0.315,0.788,0.743,1.035,1.296
	c0.248,0.55,0.37,1.185,0.374,1.899c-0.004,0.689-0.144,1.306-0.409,1.846c-0.266,0.535-0.626,0.964-1.072,1.27
	c-0.445,0.311-0.94,0.473-1.489,0.477c-0.612-0.004-1.139-0.166-1.58-0.48c-0.437-0.315-0.774-0.757-1.009-1.323
	C643.131,116.657,643.01,115.995,643.01,115.243z M653.784,102.171h-4.888v7.994h-0.054c-0.414-0.535-0.873-0.964-1.373-1.273
	c-0.499-0.311-1.04-0.536-1.62-0.667c-0.577-0.135-1.193-0.197-1.842-0.192c-0.778,0.004-1.485,0.139-2.119,0.404
	c-0.635,0.266-1.193,0.635-1.68,1.099c-0.485,0.468-0.896,0.999-1.224,1.606c-0.328,0.604-0.576,1.247-0.747,1.927
	c-0.166,0.68-0.253,1.368-0.253,2.066c0,1.049,0.14,2.029,0.415,2.943c0.278,0.918,0.688,1.724,1.229,2.422
	c0.544,0.701,1.215,1.246,2.017,1.646c0.796,0.396,1.719,0.594,2.769,0.604c0.756-0.005,1.458-0.135,2.11-0.388
	c0.652-0.252,1.221-0.589,1.692-1.017c0.473-0.428,0.819-0.905,1.031-1.431h0.054v2.511h4.482V102.171z M621.944,122.426h4.861
	v-20.255h-4.861V122.426z M608.738,117.97c0.005-0.45,0.14-0.81,0.396-1.085c0.263-0.274,0.613-0.472,1.055-0.594
	c0.44-0.126,0.939-0.189,1.493-0.185c0.365,0,0.721,0.014,1.068,0.031c0.346,0.019,0.674,0.036,0.984,0.05
	c0,0.414-0.071,0.819-0.211,1.215c-0.136,0.392-0.338,0.747-0.599,1.063c-0.262,0.32-0.577,0.571-0.946,0.757
	c-0.368,0.188-0.782,0.283-1.241,0.288c-0.383,0-0.725-0.063-1.022-0.186c-0.301-0.121-0.535-0.292-0.711-0.521
	C608.828,118.573,608.743,118.294,608.738,117.97z M618.542,122.426c-0.104-0.554-0.176-1.107-0.216-1.661
	c-0.036-0.554-0.055-1.106-0.055-1.661v-5.238c-0.004-1.071-0.188-1.977-0.54-2.724c-0.355-0.747-0.842-1.346-1.463-1.805
	c-0.616-0.455-1.327-0.788-2.133-0.999c-0.802-0.207-1.657-0.311-2.561-0.306c-1.036-0.005-2.018,0.075-2.94,0.233
	c-0.927,0.162-1.818,0.414-2.679,0.766l0.081,3.295c0.681-0.374,1.4-0.645,2.162-0.812c0.76-0.166,1.534-0.247,2.321-0.243
	c0.595-0.004,1.13,0.064,1.607,0.203c0.482,0.145,0.864,0.392,1.152,0.747c0.288,0.352,0.44,0.847,0.454,1.481
	c-0.314-0.055-0.675-0.1-1.071-0.136c-0.4-0.036-0.796-0.054-1.197-0.054c-0.436-0.005-0.918,0.018-1.439,0.059
	c-0.519,0.04-1.054,0.117-1.594,0.234c-0.545,0.113-1.066,0.283-1.57,0.499c-0.505,0.221-0.954,0.509-1.355,0.86
	c-0.396,0.354-0.716,0.787-0.945,1.31c-0.234,0.518-0.355,1.135-0.36,1.846c0.005,0.761,0.148,1.422,0.433,1.98
	c0.283,0.558,0.666,1.017,1.156,1.377c0.491,0.364,1.053,0.63,1.679,0.811c0.631,0.176,1.296,0.261,1.999,0.261
	c0.661,0,1.265-0.091,1.796-0.27c0.535-0.181,1.022-0.455,1.458-0.829c0.438-0.378,0.837-0.855,1.202-1.44h0.054
	c0.005,0.365,0.019,0.729,0.045,1.099c0.027,0.365,0.05,0.738,0.063,1.116H618.542z M603.175,108.194
	c-0.247-0.04-0.508-0.08-0.792-0.112c-0.283-0.031-0.566-0.049-0.854-0.049c-0.698,0.004-1.311,0.121-1.828,0.359
	c-0.521,0.238-0.972,0.571-1.35,1.008c-0.379,0.437-0.707,0.95-0.981,1.549h-0.054v-2.593h-4.43v14.07h4.861v-5.941
	c0-0.923,0.14-1.711,0.414-2.367c0.274-0.652,0.67-1.157,1.197-1.508c0.527-0.347,1.171-0.522,1.927-0.526
	c0.283-0.005,0.563,0.004,0.832,0.018c0.275,0.019,0.545,0.067,0.814,0.145L603.175,108.194z M580.571,114.054
	c0.036-0.545,0.152-1.04,0.36-1.484c0.202-0.441,0.495-0.793,0.881-1.059c0.389-0.261,0.874-0.396,1.459-0.4
	c0.645,0.005,1.166,0.14,1.566,0.4c0.396,0.266,0.685,0.617,0.869,1.059c0.18,0.444,0.27,0.939,0.266,1.484H580.571z
	 M590.348,116.809v-0.892c0-0.841-0.076-1.651-0.238-2.426c-0.163-0.778-0.415-1.499-0.762-2.16
	c-0.346-0.657-0.796-1.238-1.35-1.729c-0.554-0.495-1.225-0.878-2.012-1.152c-0.788-0.275-1.701-0.414-2.742-0.418
	c-1.098,0-2.106,0.166-3.024,0.494c-0.914,0.329-1.71,0.807-2.381,1.437c-0.675,0.63-1.197,1.399-1.566,2.309
	c-0.368,0.904-0.559,1.94-0.563,3.106c0.004,1.161,0.216,2.2,0.626,3.109c0.409,0.913,0.985,1.685,1.724,2.318
	c0.738,0.635,1.603,1.116,2.597,1.444c0.99,0.334,2.07,0.495,3.236,0.5c0.909,0,1.801-0.067,2.669-0.212
	c0.873-0.144,1.702-0.369,2.489-0.68v-3.43c-0.733,0.388-1.467,0.666-2.196,0.833c-0.733,0.171-1.432,0.252-2.098,0.248
	c-0.792,0.004-1.48-0.086-2.065-0.271c-0.586-0.18-1.054-0.469-1.404-0.864c-0.348-0.4-0.572-0.923-0.662-1.566H590.348z
	 M562.693,115.243c0-0.469,0.063-0.913,0.193-1.332c0.131-0.414,0.319-0.788,0.566-1.107c0.253-0.324,0.563-0.576,0.928-0.761
	s0.783-0.279,1.256-0.284c0.599,0.005,1.12,0.167,1.563,0.478c0.444,0.315,0.787,0.743,1.035,1.296
	c0.247,0.55,0.369,1.185,0.373,1.899c-0.004,0.689-0.144,1.306-0.41,1.846c-0.265,0.535-0.625,0.964-1.071,1.27
	c-0.445,0.311-0.94,0.473-1.489,0.477c-0.612-0.004-1.139-0.166-1.58-0.48c-0.437-0.315-0.774-0.757-1.009-1.323
	C562.814,116.657,562.693,115.995,562.693,115.243z M573.469,102.171h-4.889v7.994h-0.054c-0.414-0.535-0.873-0.964-1.373-1.273
	c-0.499-0.311-1.039-0.536-1.62-0.667c-0.577-0.135-1.193-0.197-1.841-0.192c-0.779,0.004-1.486,0.139-2.12,0.404
	c-0.635,0.266-1.193,0.635-1.679,1.099c-0.486,0.468-0.896,0.999-1.225,1.606c-0.328,0.604-0.576,1.247-0.747,1.927
	c-0.166,0.68-0.252,1.368-0.252,2.066c0,1.049,0.14,2.029,0.414,2.943c0.279,0.918,0.688,1.724,1.229,2.422
	c0.545,0.701,1.216,1.246,2.017,1.646c0.796,0.396,1.719,0.594,2.769,0.604c0.756-0.005,1.458-0.135,2.11-0.388
	c0.652-0.252,1.221-0.589,1.692-1.017c0.473-0.428,0.819-0.905,1.031-1.431h0.054v2.511h4.483V102.171z M546.03,114.054
	c0.036-0.545,0.152-1.04,0.36-1.484c0.202-0.441,0.495-0.793,0.881-1.059c0.389-0.261,0.874-0.396,1.459-0.4
	c0.645,0.005,1.166,0.14,1.566,0.4c0.396,0.266,0.685,0.617,0.869,1.059c0.18,0.444,0.27,0.939,0.266,1.484H546.03z
	 M555.807,116.809v-0.892c0-0.841-0.076-1.651-0.238-2.426c-0.163-0.778-0.415-1.499-0.762-2.16
	c-0.346-0.657-0.796-1.238-1.35-1.729c-0.554-0.495-1.225-0.878-2.012-1.152c-0.788-0.275-1.701-0.414-2.742-0.418
	c-1.098,0-2.106,0.166-3.024,0.494c-0.914,0.329-1.71,0.807-2.381,1.437c-0.675,0.63-1.197,1.399-1.566,2.309
	c-0.368,0.904-0.559,1.94-0.563,3.106c0.004,1.161,0.216,2.2,0.626,3.109c0.409,0.913,0.985,1.685,1.724,2.318
	c0.738,0.635,1.603,1.116,2.597,1.444c0.99,0.334,2.07,0.495,3.236,0.5c0.909,0,1.801-0.067,2.669-0.212
	c0.873-0.144,1.702-0.369,2.49-0.68v-3.43c-0.734,0.388-1.468,0.666-2.197,0.833c-0.733,0.171-1.432,0.252-2.098,0.248
	c-0.792,0.004-1.48-0.086-2.065-0.271c-0.586-0.18-1.054-0.469-1.404-0.864c-0.348-0.4-0.572-0.923-0.662-1.566H555.807z
	 M526.938,122.426h5.022v-7.589h7.265v-3.565h-7.265v-4.132h7.589v-3.563h-12.611V122.426z M506.25,114.054
	c0.036-0.545,0.153-1.04,0.36-1.484c0.202-0.441,0.495-0.793,0.882-1.059c0.388-0.261,0.873-0.396,1.459-0.4
	c0.644,0.005,1.166,0.14,1.565,0.4c0.396,0.266,0.686,0.617,0.869,1.059c0.18,0.444,0.271,0.939,0.266,1.484H506.25z
	 M516.026,116.809v-0.892c0-0.841-0.076-1.651-0.238-2.426c-0.162-0.778-0.414-1.499-0.761-2.16
	c-0.347-0.657-0.797-1.238-1.351-1.729c-0.553-0.495-1.225-0.878-2.012-1.152c-0.788-0.275-1.701-0.414-2.741-0.418
	c-1.099,0-2.106,0.166-3.024,0.494c-0.914,0.329-1.71,0.807-2.381,1.437c-0.676,0.63-1.198,1.399-1.566,2.309
	c-0.369,0.904-0.559,1.94-0.563,3.106c0.005,1.161,0.217,2.2,0.626,3.109c0.409,0.913,0.985,1.685,1.724,2.318
	c0.738,0.635,1.603,1.116,2.598,1.444c0.99,0.334,2.07,0.495,3.236,0.5c0.909,0,1.801-0.067,2.669-0.212
	c0.873-0.144,1.701-0.369,2.489-0.68v-3.43c-0.733,0.388-1.468,0.666-2.197,0.833c-0.733,0.171-1.432,0.252-2.098,0.248
	c-0.792,0.004-1.48-0.086-2.065-0.271c-0.585-0.18-1.054-0.469-1.404-0.864c-0.347-0.4-0.571-0.923-0.662-1.566H516.026z
	 M488.372,115.243c0-0.469,0.063-0.913,0.193-1.332c0.131-0.414,0.32-0.788,0.567-1.107c0.252-0.324,0.563-0.576,0.928-0.761
	c0.364-0.185,0.782-0.279,1.255-0.284c0.599,0.005,1.121,0.167,1.563,0.478c0.444,0.315,0.788,0.743,1.035,1.296
	c0.247,0.55,0.369,1.185,0.373,1.899c-0.004,0.689-0.144,1.306-0.409,1.846c-0.266,0.535-0.626,0.964-1.071,1.27
	c-0.446,0.311-0.941,0.473-1.49,0.477c-0.612-0.004-1.139-0.166-1.58-0.48c-0.436-0.315-0.773-0.757-1.008-1.323
	C488.493,116.657,488.372,115.995,488.372,115.243z M499.147,102.171h-4.888v7.994h-0.055c-0.414-0.535-0.873-0.964-1.373-1.273
	c-0.499-0.311-1.039-0.536-1.619-0.667c-0.577-0.135-1.193-0.197-1.842-0.192c-0.778,0.004-1.485,0.139-2.119,0.404
	c-0.636,0.266-1.193,0.635-1.68,1.099c-0.486,0.468-0.896,0.999-1.225,1.606c-0.328,0.604-0.576,1.247-0.747,1.927
	c-0.166,0.68-0.252,1.368-0.252,2.066c0,1.049,0.14,2.029,0.415,2.943c0.278,0.918,0.688,1.724,1.229,2.422
	c0.544,0.701,1.215,1.246,2.016,1.646c0.797,0.396,1.72,0.594,2.769,0.604c0.757-0.005,1.458-0.135,2.111-0.388
	c0.652-0.252,1.22-0.589,1.691-1.017c0.474-0.428,0.819-0.905,1.031-1.431h0.054v2.511h4.483V102.171z M471.385,117.97
	c0.005-0.45,0.141-0.81,0.396-1.085c0.261-0.274,0.611-0.472,1.054-0.594c0.44-0.126,0.94-0.189,1.493-0.185
	c0.365,0,0.721,0.014,1.067,0.031c0.347,0.019,0.675,0.036,0.985,0.05c0,0.414-0.071,0.819-0.211,1.215
	c-0.135,0.392-0.338,0.747-0.599,1.063c-0.262,0.32-0.576,0.571-0.945,0.757c-0.369,0.188-0.783,0.283-1.242,0.288
	c-0.383,0-0.726-0.063-1.021-0.186c-0.302-0.121-0.536-0.292-0.711-0.521C471.476,118.573,471.39,118.294,471.385,117.97z
	 M481.188,122.426c-0.104-0.554-0.176-1.107-0.216-1.661c-0.037-0.554-0.055-1.106-0.055-1.661v-5.238
	c-0.004-1.071-0.189-1.977-0.54-2.724c-0.355-0.747-0.841-1.346-1.462-1.805c-0.617-0.455-1.328-0.788-2.135-0.999
	c-0.8-0.207-1.656-0.311-2.561-0.306c-1.035-0.005-2.017,0.075-2.939,0.233c-0.927,0.162-1.818,0.414-2.678,0.766l0.081,3.295
	c0.68-0.374,1.399-0.645,2.16-0.812c0.762-0.166,1.535-0.247,2.323-0.243c0.594-0.004,1.129,0.064,1.606,0.203
	c0.481,0.145,0.864,0.392,1.152,0.747c0.288,0.352,0.441,0.847,0.454,1.481c-0.314-0.055-0.675-0.1-1.071-0.136
	c-0.399-0.036-0.796-0.054-1.196-0.054c-0.437-0.005-0.919,0.018-1.441,0.059c-0.517,0.04-1.053,0.117-1.593,0.234
	c-0.545,0.113-1.066,0.283-1.57,0.499c-0.505,0.221-0.954,0.509-1.355,0.86c-0.396,0.354-0.716,0.787-0.945,1.31
	c-0.233,0.518-0.355,1.135-0.36,1.846c0.005,0.761,0.148,1.422,0.433,1.98c0.284,0.558,0.666,1.017,1.157,1.377
	c0.49,0.364,1.053,0.63,1.679,0.811c0.63,0.176,1.296,0.261,1.998,0.261c0.661,0,1.265-0.091,1.796-0.27
	c0.536-0.181,1.021-0.455,1.459-0.829c0.436-0.378,0.837-0.855,1.201-1.44h0.054c0.005,0.365,0.018,0.729,0.046,1.099
	c0.026,0.365,0.049,0.738,0.063,1.116H481.188z M453.831,115.243c0-0.469,0.063-0.913,0.193-1.332
	c0.131-0.414,0.32-0.788,0.567-1.107c0.252-0.324,0.563-0.576,0.928-0.761c0.364-0.185,0.782-0.279,1.255-0.284
	c0.599,0.005,1.121,0.167,1.563,0.478c0.444,0.315,0.788,0.743,1.035,1.296c0.247,0.55,0.369,1.185,0.373,1.899
	c-0.004,0.689-0.144,1.306-0.409,1.846c-0.266,0.535-0.626,0.964-1.071,1.27c-0.445,0.311-0.941,0.473-1.49,0.477
	c-0.612-0.004-1.139-0.166-1.58-0.48c-0.436-0.315-0.773-0.757-1.008-1.323C453.952,116.657,453.831,115.995,453.831,115.243z
	 M464.606,102.171h-4.888v7.994h-0.055c-0.414-0.535-0.873-0.964-1.373-1.273c-0.499-0.311-1.039-0.536-1.619-0.667
	c-0.576-0.135-1.193-0.197-1.842-0.192c-0.778,0.004-1.485,0.139-2.119,0.404c-0.636,0.266-1.193,0.635-1.679,1.099
	c-0.487,0.468-0.896,0.999-1.226,1.606c-0.328,0.604-0.576,1.247-0.747,1.927c-0.166,0.68-0.252,1.368-0.252,2.066
	c0,1.049,0.14,2.029,0.415,2.943c0.278,0.918,0.688,1.724,1.229,2.422c0.544,0.701,1.215,1.246,2.016,1.646
	c0.797,0.396,1.72,0.594,2.769,0.604c0.757-0.005,1.458-0.135,2.111-0.388c0.652-0.252,1.22-0.589,1.691-1.017
	c0.474-0.428,0.819-0.905,1.031-1.431h0.055v2.511h4.482V102.171z M445.891,102.496h-4.86v3.565h4.86V102.496z M441.03,122.426h4.86
	v-14.07h-4.86V122.426z M426.419,122.075c0.474,0.153,0.964,0.279,1.473,0.379c0.509,0.099,1.062,0.176,1.656,0.225
	c0.59,0.05,1.252,0.072,1.977,0.072c0.643,0,1.278-0.04,1.908-0.131c0.626-0.085,1.22-0.233,1.777-0.44
	c0.559-0.212,1.054-0.495,1.486-0.852c0.427-0.359,0.769-0.81,1.012-1.346c0.248-0.54,0.374-1.183,0.379-1.931
	c-0.01-0.761-0.14-1.391-0.401-1.891c-0.261-0.504-0.604-0.909-1.035-1.215c-0.427-0.311-0.9-0.555-1.413-0.738
	c-0.513-0.18-1.026-0.328-1.539-0.441c-0.513-0.117-0.986-0.234-1.414-0.351c-0.432-0.112-0.773-0.261-1.035-0.441
	c-0.261-0.18-0.392-0.423-0.4-0.729c0.005-0.194,0.072-0.356,0.202-0.482c0.132-0.126,0.307-0.225,0.522-0.297
	c0.221-0.072,0.459-0.122,0.725-0.153c0.262-0.027,0.526-0.041,0.792-0.041c0.41,0,0.843,0.037,1.292,0.109
	c0.45,0.066,0.892,0.175,1.323,0.314c0.433,0.14,0.819,0.315,1.166,0.522l0.378-3.376c-0.788-0.306-1.598-0.518-2.431-0.639
	c-0.832-0.118-1.67-0.176-2.512-0.171c-0.566,0-1.134,0.053-1.701,0.161c-0.567,0.112-1.107,0.279-1.62,0.514
	c-0.513,0.229-0.973,0.521-1.373,0.882s-0.716,0.788-0.944,1.287c-0.234,0.5-0.352,1.071-0.356,1.72
	c0.009,0.72,0.135,1.318,0.383,1.795c0.247,0.474,0.581,0.86,0.99,1.153c0.409,0.298,0.859,0.531,1.351,0.711
	c0.49,0.176,0.98,0.324,1.472,0.446c0.49,0.121,0.94,0.247,1.351,0.378c0.409,0.13,0.738,0.292,0.985,0.495
	c0.247,0.197,0.378,0.468,0.383,0.801c-0.005,0.319-0.104,0.563-0.288,0.725c-0.189,0.167-0.433,0.274-0.729,0.333
	c-0.297,0.054-0.616,0.081-0.954,0.077c-0.59-0.005-1.157-0.05-1.71-0.146c-0.555-0.094-1.071-0.211-1.558-0.359
	c-0.481-0.148-0.914-0.301-1.297-0.468L426.419,122.075z M425.259,108.194c-0.248-0.04-0.509-0.08-0.792-0.112
	c-0.284-0.031-0.568-0.049-0.855-0.049c-0.698,0.004-1.31,0.121-1.828,0.359c-0.521,0.238-0.972,0.571-1.35,1.008
	s-0.707,0.95-0.981,1.549h-0.054v-2.593h-4.429v14.07h4.861v-5.941c0-0.923,0.14-1.711,0.414-2.367
	c0.274-0.652,0.671-1.157,1.197-1.508c0.527-0.347,1.17-0.522,1.927-0.526c0.283-0.005,0.563,0.004,0.833,0.018
	c0.273,0.019,0.544,0.067,0.814,0.145L425.259,108.194z M402.654,114.054c0.037-0.545,0.153-1.04,0.361-1.484
	c0.202-0.441,0.495-0.793,0.882-1.059c0.387-0.261,0.873-0.396,1.458-0.4c0.644,0.005,1.166,0.14,1.567,0.4
	c0.396,0.266,0.684,0.617,0.869,1.059c0.18,0.444,0.27,0.939,0.266,1.484H402.654z M412.431,116.809v-0.892
	c0-0.841-0.077-1.651-0.239-2.426c-0.162-0.778-0.414-1.499-0.761-2.16c-0.347-0.657-0.796-1.238-1.35-1.729
	c-0.554-0.495-1.225-0.878-2.012-1.152c-0.788-0.275-1.702-0.414-2.742-0.418c-1.098,0-2.106,0.166-3.025,0.494
	c-0.914,0.329-1.71,0.807-2.381,1.437c-0.675,0.63-1.197,1.399-1.566,2.309c-0.369,0.904-0.558,1.94-0.563,3.106
	c0.005,1.161,0.216,2.2,0.625,3.109c0.409,0.913,0.986,1.685,1.724,2.318c0.738,0.635,1.602,1.116,2.597,1.444
	c0.991,0.334,2.07,0.495,3.236,0.5c0.909,0,1.801-0.067,2.67-0.212c0.873-0.144,1.701-0.369,2.489-0.68v-3.43
	c-0.734,0.388-1.468,0.666-2.197,0.833c-0.733,0.171-1.431,0.252-2.097,0.248c-0.792,0.004-1.481-0.086-2.066-0.271
	c-0.585-0.18-1.053-0.469-1.404-0.864c-0.347-0.4-0.573-0.923-0.662-1.566H412.431z M385.937,122.426h5.537l5.211-14.07h-4.834
	l-2.944,10.02h-0.054l-2.917-10.02h-5.212L385.937,122.426z M378.375,102.496h-4.861v3.565h4.861V102.496z M373.515,122.426h4.861
	v-14.07h-4.861V122.426z M354.934,122.426h4.861v-5.941c0-1.508,0.257-2.619,0.765-3.335c0.504-0.716,1.26-1.071,2.259-1.066
	c0.446-0.005,0.833,0.103,1.171,0.328c0.333,0.225,0.598,0.599,0.783,1.116c0.189,0.518,0.284,1.215,0.288,2.094v6.805h4.861v-8.777
	c0-0.737-0.099-1.439-0.301-2.106c-0.203-0.67-0.518-1.27-0.946-1.796c-0.432-0.526-0.985-0.94-1.669-1.246
	c-0.679-0.307-1.499-0.464-2.457-0.468c-0.743,0-1.44,0.099-2.098,0.306c-0.658,0.207-1.247,0.521-1.765,0.954
	c-0.518,0.432-0.941,0.98-1.27,1.656h-0.053v-2.593h-4.43V122.426z M351.937,103.577h-5.024v10.856
	c0.005,0.625-0.045,1.215-0.144,1.764c-0.099,0.554-0.27,1.04-0.513,1.463s-0.572,0.757-0.995,0.995
	c-0.418,0.243-0.95,0.364-1.588,0.368c-0.639-0.004-1.166-0.125-1.589-0.368c-0.418-0.238-0.751-0.572-0.994-0.995
	c-0.239-0.423-0.41-0.909-0.514-1.463c-0.099-0.549-0.148-1.139-0.144-1.764v-10.856h-5.023v11.693
	c0.004,1.286,0.207,2.403,0.599,3.344c0.396,0.941,0.959,1.72,1.692,2.331c0.729,0.613,1.598,1.063,2.606,1.36
	c1.013,0.297,2.133,0.445,3.367,0.445s2.354-0.148,3.367-0.445c1.009-0.298,1.876-0.747,2.61-1.36
	c0.729-0.611,1.292-1.39,1.688-2.331c0.396-0.94,0.594-2.058,0.599-3.344V103.577z M86.678,94.337H75.442v15.842
	c0,3.82-1.49,5.729-4.468,5.729c-2.452,0-3.677-1.646-3.677-4.943V94.337H56.174v16.347c0,3.708,0.373,6.312,1.123,7.81
	c1.536,3.071,4.457,4.606,8.764,4.606c3.745,0,6.872-1.591,9.381-4.775v4.101h11.236V94.337z M119.373,106.078
	c0-3.632-0.357-6.179-1.072-7.64c-1.54-3.182-4.487-4.775-8.845-4.775c-3.794,0-6.949,1.594-9.465,4.775v-4.101H88.868v28.088
	h11.124V106.64c0-3.895,1.5-5.843,4.5-5.843c2.505,0,3.758,1.667,3.758,5v16.628h11.123V106.078z M121.62,92.255h11.124v-6.86
	H121.62V92.255z M132.743,94.337H121.62v28.088h11.124V94.582V94.337z M182.57,113.887c-0.337,0.749-0.871,1.348-1.601,1.798
	c-0.73,0.449-1.47,0.674-2.219,0.674c-0.75,0-1.424-0.328-2.023-0.983c-0.599-0.655-0.898-1.413-0.898-2.275
	c0-2.097,1.666-3.595,5-4.494c1.124-0.3,1.91-0.506,2.359-0.618v2.529C183.188,111.829,182.981,112.951,182.57,113.887z
	 M154.651,113.842c-0.898,2.314-2.267,3.472-4.101,3.472c-1.386,0-2.5-0.813-3.343-2.436c-0.843-1.625-1.264-3.799-1.264-6.524
	s0.439-4.872,1.32-6.44c0.879-1.566,2.087-2.353,3.623-2.353c1.46,0,2.612,0.766,3.455,2.298c0.843,1.53,1.264,3.619,1.264,6.271
	C155.606,110.295,155.288,112.2,154.651,113.842z M194.03,113.606v-6.517c0-4.344-0.656-7.378-1.966-9.101
	c-2.21-2.883-5.899-4.326-11.067-4.326c-4.606,0-8.896,1.292-12.864,3.877l3.134,4.999c2.388-1.984,4.701-2.978,6.94-2.978
	c2.276,0,3.937,0.935,4.981,2.803l-4.535,0.953c-4.107,0.859-7.112,2.036-9.016,3.53c-0.953,0.752-1.735,1.567-2.345,2.445
	c0.037-0.5,0.056-1.009,0.056-1.528c0-4.195-1.133-7.594-3.398-10.196c-2.266-2.603-5.216-3.905-8.849-3.905
	c-1.909,0-3.548,0.329-4.916,0.983c-1.367,0.656-2.78,1.808-4.241,3.455v-3.764h-10.898v35.522h10.898v-11.198
	c1.422,1.649,2.733,2.801,3.932,3.455c1.198,0.654,2.603,0.983,4.213,0.983c3.746,0,6.891-1.479,9.438-4.438
	c0.872-1.013,1.595-2.105,2.169-3.276c0.175,1.979,1.006,3.709,2.494,5.193c1.685,1.682,3.651,2.521,5.898,2.521
	c3.183,0,6.104-1.254,8.763-3.764c0,1.123,0.131,2.153,0.394,3.089h11.796C194.367,120.291,194.03,117.351,194.03,113.606z
	 M244.814,105.91c0-3.782-0.432-6.423-1.293-7.921c-1.65-2.883-4.54-4.326-8.665-4.326c-4.089,0-7.296,1.594-9.623,4.775
	c-1.424-3.182-4.106-4.775-8.043-4.775c-4.202,0-7.446,1.594-9.735,4.775v-4.101h-11.123v28.088h11.123v-15.939
	c0-1.576,0.114-2.684,0.341-3.322c0.565-1.577,1.792-2.366,3.678-2.366c1.434,0,2.435,0.563,3.001,1.689
	c0.302,0.602,0.453,1.972,0.453,4.111v15.827h11.124v-15.954c0-1.422,0.132-2.49,0.398-3.202c0.608-1.647,1.824-2.472,3.648-2.472
	c1.444,0,2.471,0.562,3.078,1.686c0.343,0.638,0.515,1.817,0.515,3.539v16.403h11.123V105.91z M294.586,113.887
	c-0.337,0.749-0.871,1.348-1.601,1.798c-0.73,0.449-1.47,0.674-2.219,0.674c-0.75,0-1.424-0.328-2.021-0.983
	c-0.6-0.655-0.9-1.413-0.9-2.275c0-2.097,1.665-3.595,5-4.494c1.123-0.3,1.911-0.506,2.359-0.618v2.529
	C295.204,111.829,294.997,112.951,294.586,113.887z M266.667,113.842c-0.898,2.314-2.266,3.472-4.101,3.472
	c-1.385,0-2.5-0.813-3.342-2.436c-0.842-1.625-1.264-3.799-1.264-6.524s0.439-4.872,1.319-6.44c0.88-1.566,2.087-2.353,3.624-2.353
	c1.461,0,2.612,0.766,3.456,2.298c0.842,1.53,1.264,3.619,1.264,6.271C267.622,110.295,267.304,112.2,266.667,113.842z
	 M306.046,113.606v-6.517c0-4.344-0.656-7.378-1.967-9.101c-2.209-2.883-5.898-4.326-11.066-4.326
	c-4.606,0-8.895,1.292-12.865,3.877l3.134,4.999c2.388-1.984,4.7-2.978,6.939-2.978c2.277,0,3.938,0.935,4.981,2.803l-4.535,0.953
	c-4.108,0.859-7.114,2.036-9.018,3.53c-0.953,0.752-1.735,1.567-2.345,2.445c0.037-0.5,0.056-1.009,0.056-1.528
	c0-4.195-1.133-7.594-3.399-10.196c-2.267-2.603-5.215-3.905-8.847-3.905c-1.911,0-3.549,0.329-4.916,0.983
	c-1.368,0.656-2.781,1.808-4.241,3.455v-3.764h-10.898v35.522h10.898v-11.198c1.422,1.649,2.733,2.801,3.932,3.455
	c1.198,0.654,2.603,0.983,4.213,0.983c3.745,0,6.891-1.479,9.438-4.438c0.873-1.014,1.596-2.106,2.169-3.278
	c0.175,1.979,1.004,3.711,2.493,5.195c1.685,1.682,3.652,2.521,5.898,2.521c3.184,0,6.104-1.254,8.764-3.764
	c0,1.123,0.13,2.153,0.392,3.089h11.798C306.383,120.291,306.046,117.351,306.046,113.606z"/>
</svg>