<?xml version="1.0" encoding="utf-8"?>
<!-- Generator: Adobe Illustrator 15.1.0, SVG Export Plug-In . SVG Version: 6.00 Build 0)  -->
<!DOCTYPE svg PUBLIC "-//W3C//DTD SVG 1.1//EN" "http://www.w3.org/Graphics/SVG/1.1/DTD/svg11.dtd">
<svg version="1.1" id="Camada_1" xmlns="http://www.w3.org/2000/svg" xmlns:xlink="http://www.w3.org/1999/xlink" x="0px" y="0px"
	 width="554.707px" height="379.763px" viewBox="0 0 554.707 379.763" enable-background="new 0 0 554.707 379.763"
	 xml:space="preserve">
<rect x="4.216" y="6.664" fill-rule="evenodd" clip-rule="evenodd" fill="#FFFFFF" width="546.73" height="370.902"/>
<path fill="#009640" d="M209.558,100.948c1.799-3.976,2.804-8.39,2.804-13.04c0-17.485-14.176-31.658-31.661-31.658
	s-31.661,14.173-31.661,31.658c0,4.657,1.008,9.083,2.813,13.063c-15.784,1.794-28.046,15.191-28.046,31.456
	c0,17.485,14.172,31.661,31.661,31.661c6.809,0,13.117-2.151,18.282-5.812h14.12c5.165,3.661,11.473,5.812,18.283,5.812
	c17.484,0,31.661-14.176,31.661-31.661C237.814,116.091,225.443,102.644,209.558,100.948 M54.344,253.564
	c17.31-5.483,77.32-18.569,222.78-0.847c164.411,20.026,217.487,0.771,224.145-2.037v7.072
	c-14.103,4.919-72.788,20.085-224.923,1.552c-152.869-18.622-209.459-3.284-222.001,1.22V253.564z"/>
<path d="M489.917,317.696c0.013-0.458,0.148-0.82,0.406-1.101c0.268-0.277,0.621-0.478,1.068-0.604
	c0.446-0.126,0.958-0.19,1.52-0.186c0.368,0,0.728,0.012,1.084,0.032c0.349,0.017,0.686,0.037,0.999,0.047
	c0,0.421-0.072,0.832-0.215,1.236c-0.137,0.396-0.342,0.758-0.604,1.079c-0.27,0.327-0.591,0.58-0.965,0.769
	c-0.372,0.189-0.795,0.284-1.263,0.289c-0.389,0-0.73-0.063-1.036-0.184c-0.305-0.126-0.542-0.3-0.721-0.532
	C490.013,318.313,489.93,318.028,489.917,317.696 M499.875,322.222c-0.106-0.563-0.18-1.125-0.218-1.685
	c-0.035-0.563-0.057-1.125-0.057-1.688v-5.32c-0.006-1.084-0.189-2.006-0.548-2.764c-0.362-0.757-0.852-1.368-1.483-1.836
	c-0.626-0.458-1.352-0.799-2.168-1.015c-0.815-0.206-1.683-0.312-2.599-0.307c-1.054-0.005-2.048,0.074-2.984,0.237
	c-0.942,0.163-1.848,0.416-2.721,0.774l0.079,3.346c0.695-0.378,1.427-0.653,2.194-0.821c0.773-0.169,1.563-0.252,2.363-0.247
	c0.599-0.005,1.146,0.063,1.631,0.205c0.489,0.148,0.874,0.396,1.168,0.759c0.289,0.357,0.447,0.856,0.462,1.505
	c-0.319-0.059-0.683-0.101-1.088-0.139c-0.406-0.035-0.81-0.057-1.215-0.057c-0.443,0-0.932,0.021-1.463,0.064
	c-0.527,0.035-1.069,0.113-1.615,0.235c-0.558,0.116-1.085,0.284-1.602,0.505c-0.51,0.227-0.967,0.517-1.373,0.874
	c-0.399,0.362-0.726,0.801-0.957,1.331c-0.241,0.526-0.362,1.152-0.367,1.873c0.005,0.773,0.151,1.446,0.44,2.011
	c0.285,0.567,0.673,1.032,1.173,1.398c0.496,0.369,1.069,0.643,1.705,0.821c0.639,0.179,1.316,0.27,2.027,0.27
	c0.673,0,1.288-0.096,1.825-0.274c0.542-0.184,1.037-0.463,1.479-0.842c0.441-0.384,0.852-0.868,1.22-1.463h0.058
	c0.005,0.368,0.018,0.741,0.043,1.114c0.025,0.369,0.053,0.748,0.063,1.133H499.875z M478.516,314.928
	c0,0.764-0.127,1.438-0.364,2.006c-0.235,0.578-0.577,1.025-1.024,1.347c-0.443,0.315-0.976,0.484-1.602,0.489
	c-0.552-0.005-1.062-0.174-1.514-0.484c-0.454-0.316-0.816-0.747-1.09-1.289c-0.269-0.552-0.41-1.178-0.415-1.878
	c0.005-0.715,0.136-1.358,0.378-1.915c0.253-0.559,0.6-1,1.052-1.321c0.454-0.321,0.979-0.489,1.589-0.489
	c0.48,0,0.906,0.101,1.275,0.284c0.372,0.19,0.683,0.447,0.941,0.773c0.252,0.326,0.441,0.705,0.572,1.126
	C478.454,314.002,478.516,314.455,478.516,314.928z M467.57,327.979h4.938v-7.756h0.057c0.316,0.558,0.716,1.02,1.2,1.361
	c0.484,0.337,1.015,0.592,1.589,0.737c0.574,0.158,1.152,0.237,1.737,0.232c1.062-0.012,1.999-0.21,2.815-0.616
	c0.805-0.406,1.487-0.957,2.041-1.667c0.547-0.711,0.963-1.532,1.247-2.463c0.278-0.927,0.422-1.922,0.422-2.988
	c0-0.695-0.09-1.391-0.259-2.074c-0.175-0.689-0.427-1.348-0.759-1.957c-0.331-0.616-0.747-1.158-1.242-1.638
	c-0.492-0.478-1.062-0.856-1.704-1.126c-0.642-0.272-1.361-0.416-2.151-0.416c-0.752,0-1.479,0.101-2.157,0.307
	c-0.686,0.211-1.299,0.524-1.849,0.952c-0.542,0.432-0.982,0.979-1.314,1.646h-0.052v-2.578h-4.559V327.979z M440.26,322.222h4.937
	v-6.029c0.005-1.531,0.253-2.663,0.737-3.39c0.49-0.726,1.178-1.089,2.057-1.084c0.47,0.005,0.842,0.131,1.138,0.374
	c0.289,0.241,0.5,0.578,0.637,0.999c0.136,0.426,0.204,0.91,0.204,1.452v7.678h4.931v-6.029c0.011-1.531,0.259-2.663,0.741-3.39
	c0.49-0.726,1.18-1.089,2.059-1.084c0.468,0.005,0.847,0.131,1.137,0.374c0.289,0.241,0.505,0.578,0.636,0.999
	c0.138,0.426,0.206,0.91,0.206,1.452v7.678h4.931v-8.419c0.005-0.969-0.064-1.837-0.205-2.599c-0.148-0.765-0.406-1.411-0.77-1.948
	c-0.373-0.537-0.884-0.947-1.546-1.226c-0.658-0.283-1.501-0.422-2.521-0.422c-0.686,0-1.338,0.089-1.964,0.279
	c-0.626,0.195-1.205,0.49-1.735,0.9c-0.531,0.399-0.989,0.922-1.373,1.563c-0.264-0.626-0.611-1.137-1.049-1.542
	c-0.445-0.406-0.951-0.71-1.529-0.905c-0.585-0.199-1.21-0.295-1.896-0.295c-0.753,0-1.462,0.101-2.131,0.307
	c-0.668,0.216-1.264,0.53-1.789,0.967c-0.526,0.443-0.957,1.001-1.289,1.685h-0.052v-2.631h-4.501V322.222z M427.427,317.696
	c0.006-0.458,0.142-0.82,0.399-1.101c0.27-0.277,0.621-0.478,1.069-0.604c0.452-0.126,0.957-0.19,1.521-0.186
	c0.367,0,0.73,0.012,1.083,0.032c0.352,0.017,0.683,0.037,0.999,0.047c0,0.421-0.073,0.832-0.214,1.236
	c-0.139,0.396-0.344,0.758-0.606,1.079c-0.268,0.327-0.589,0.58-0.963,0.769c-0.374,0.189-0.794,0.284-1.257,0.289
	c-0.391,0-0.737-0.063-1.042-0.184c-0.307-0.126-0.542-0.3-0.722-0.532C427.517,318.313,427.433,318.028,427.427,317.696z
	 M437.377,322.222c-0.1-0.563-0.173-1.125-0.216-1.685c-0.037-0.563-0.052-1.125-0.052-1.688v-5.32
	c-0.005-1.084-0.194-2.006-0.554-2.764c-0.356-0.757-0.852-1.368-1.482-1.836c-0.626-0.458-1.349-0.799-2.168-1.015
	c-0.811-0.206-1.685-0.312-2.601-0.307c-1.052-0.005-2.046,0.074-2.983,0.237c-0.941,0.163-1.846,0.416-2.72,0.774l0.084,3.346
	c0.69-0.378,1.421-0.653,2.194-0.821c0.768-0.169,1.557-0.252,2.357-0.247c0.605-0.005,1.147,0.063,1.632,0.205
	c0.487,0.148,0.879,0.396,1.168,0.759c0.294,0.357,0.446,0.856,0.462,1.505c-0.321-0.059-0.684-0.101-1.088-0.139
	c-0.406-0.035-0.811-0.057-1.217-0.057c-0.441,0-0.932,0.021-1.462,0.064c-0.526,0.035-1.067,0.113-1.616,0.235
	c-0.558,0.116-1.085,0.284-1.595,0.505c-0.515,0.227-0.967,0.517-1.378,0.874c-0.4,0.362-0.727,0.801-0.957,1.331
	c-0.238,0.526-0.364,1.152-0.369,1.873c0.005,0.773,0.153,1.446,0.442,2.011c0.285,0.567,0.674,1.032,1.174,1.398
	c0.5,0.369,1.068,0.643,1.705,0.821c0.636,0.179,1.315,0.27,2.031,0.27c0.668,0,1.276-0.096,1.818-0.274
	c0.544-0.184,1.037-0.463,1.48-0.842c0.447-0.384,0.853-0.868,1.22-1.463h0.059c0.005,0.368,0.016,0.741,0.048,1.114
	c0.026,0.369,0.047,0.748,0.063,1.133H437.377z M411.821,306.698h1.32c0.59,0,1.12,0.074,1.6,0.237
	c0.469,0.163,0.847,0.433,1.127,0.812c0.279,0.379,0.42,0.889,0.425,1.529c-0.005,0.663-0.146,1.189-0.425,1.574
	c-0.28,0.384-0.658,0.657-1.127,0.826c-0.479,0.163-1.01,0.242-1.6,0.237h-1.32V306.698z M406.721,322.222h5.1v-6.693h1.979
	c1.595,0,2.962-0.247,4.09-0.736c1.13-0.49,1.991-1.195,2.599-2.111c0.598-0.92,0.899-2.024,0.904-3.319
	c0.01-2.142-0.695-3.73-2.1-4.752c-1.411-1.025-3.573-1.537-6.483-1.524h-6.088V322.222z M387.664,319.098
	c-0.563-0.008-1.052-0.117-1.463-0.328c-0.406-0.217-0.732-0.511-0.994-0.885c-0.258-0.366-0.447-0.794-0.569-1.277
	c-0.121-0.479-0.179-0.984-0.179-1.517c0-0.537,0.058-1.052,0.179-1.531c0.122-0.482,0.312-0.915,0.569-1.289
	c0.262-0.373,0.588-0.668,0.994-0.878c0.411-0.216,0.899-0.327,1.463-0.332c0.568,0.005,1.057,0.116,1.462,0.332
	c0.411,0.21,0.738,0.505,1,0.878c0.253,0.374,0.448,0.807,0.564,1.289c0.126,0.479,0.184,0.994,0.184,1.531
	c0,0.532-0.058,1.037-0.184,1.517c-0.116,0.483-0.312,0.911-0.564,1.277c-0.262,0.374-0.589,0.668-1,0.885
	C388.72,318.98,388.232,319.09,387.664,319.098z M387.664,322.554c1.184,0,2.283-0.169,3.293-0.506
	c1.006-0.332,1.884-0.815,2.631-1.458c0.748-0.642,1.336-1.421,1.752-2.341c0.416-0.921,0.626-1.979,0.633-3.158
	c-0.007-1.188-0.217-2.241-0.633-3.172c-0.416-0.926-1.004-1.71-1.752-2.347c-0.747-0.647-1.625-1.133-2.631-1.464
	c-1.01-0.331-2.109-0.5-3.293-0.5c-1.185,0-2.279,0.169-3.283,0.5c-1.01,0.331-1.889,0.816-2.636,1.464
	c-0.754,0.637-1.339,1.421-1.754,2.347c-0.416,0.931-0.632,1.984-0.637,3.172c0.005,1.18,0.221,2.237,0.637,3.158
	c0.415,0.92,1,1.699,1.754,2.341c0.747,0.643,1.626,1.126,2.636,1.458C385.384,322.385,386.479,322.554,387.664,322.554z
	 M366.135,314.928c0-0.473,0.07-0.926,0.201-1.352c0.132-0.421,0.321-0.8,0.574-1.126c0.257-0.326,0.573-0.583,0.942-0.773
	c0.366-0.184,0.795-0.284,1.272-0.284c0.61,0,1.143,0.168,1.589,0.484c0.452,0.321,0.801,0.753,1.053,1.315
	c0.248,0.558,0.374,1.198,0.379,1.926c-0.005,0.7-0.148,1.326-0.415,1.878c-0.271,0.542-0.638,0.973-1.089,1.289
	c-0.453,0.311-0.958,0.479-1.517,0.484c-0.621-0.005-1.153-0.174-1.6-0.489c-0.447-0.321-0.789-0.769-1.026-1.347
	C366.262,316.365,366.135,315.691,366.135,314.928z M377.082,301.658h-4.968v8.112h-0.052c-0.421-0.542-0.884-0.977-1.396-1.293
	c-0.505-0.311-1.052-0.542-1.646-0.674c-0.583-0.137-1.21-0.2-1.868-0.195c-0.788,0-1.511,0.139-2.151,0.41
	c-0.642,0.271-1.211,0.645-1.705,1.116c-0.495,0.473-0.911,1.01-1.242,1.631c-0.337,0.611-0.584,1.265-0.757,1.952
	c-0.169,0.695-0.258,1.396-0.258,2.102c0,1.066,0.141,2.062,0.421,2.988c0.284,0.931,0.7,1.752,1.246,2.463
	c0.553,0.71,1.237,1.261,2.048,1.667s1.746,0.604,2.81,0.616c0.769-0.007,1.482-0.139,2.146-0.396
	c0.663-0.258,1.236-0.6,1.715-1.031c0.479-0.437,0.831-0.921,1.048-1.453h0.053v2.548h4.557V301.658z M344.747,322.222h4.936
	v-20.563h-4.936V322.222z M331.34,317.696c0.005-0.458,0.141-0.82,0.399-1.101c0.269-0.277,0.625-0.478,1.072-0.604
	c0.449-0.126,0.953-0.19,1.517-0.186c0.374,0,0.73,0.012,1.084,0.032c0.353,0.017,0.684,0.037,1,0.047
	c0,0.421-0.073,0.832-0.217,1.236c-0.132,0.396-0.343,0.758-0.604,1.079c-0.269,0.327-0.584,0.58-0.957,0.769
	c-0.379,0.189-0.8,0.284-1.263,0.289c-0.391,0-0.737-0.063-1.044-0.184c-0.304-0.126-0.542-0.3-0.721-0.532
	C331.429,318.313,331.345,318.028,331.34,317.696z M341.295,322.222c-0.104-0.563-0.179-1.125-0.221-1.685
	c-0.037-0.563-0.053-1.125-0.053-1.688v-5.32c-0.007-1.084-0.195-2.006-0.548-2.764c-0.362-0.757-0.857-1.368-1.488-1.836
	c-0.628-0.458-1.348-0.799-2.162-1.015c-0.817-0.206-1.685-0.312-2.605-0.307c-1.047-0.005-2.047,0.074-2.984,0.237
	c-0.94,0.163-1.847,0.416-2.72,0.774l0.085,3.346c0.688-0.378,1.42-0.653,2.194-0.821c0.772-0.169,1.557-0.252,2.355-0.247
	c0.606-0.005,1.147,0.063,1.631,0.205c0.49,0.148,0.88,0.396,1.17,0.759c0.295,0.357,0.451,0.856,0.463,1.505
	c-0.321-0.059-0.686-0.101-1.09-0.139c-0.404-0.035-0.806-0.057-1.211-0.057c-0.446,0-0.936,0.021-1.463,0.064
	c-0.524,0.035-1.073,0.113-1.62,0.235c-0.552,0.116-1.084,0.284-1.594,0.505c-0.51,0.227-0.969,0.517-1.373,0.874
	c-0.406,0.362-0.732,0.801-0.963,1.331c-0.237,0.526-0.363,1.152-0.363,1.873c0,0.773,0.147,1.446,0.438,2.011
	c0.288,0.567,0.678,1.032,1.173,1.398c0.499,0.369,1.066,0.643,1.704,0.821c0.643,0.179,1.315,0.27,2.031,0.27
	c0.674,0,1.283-0.096,1.82-0.274c0.547-0.184,1.042-0.463,1.484-0.842c0.442-0.384,0.846-0.868,1.22-1.463h0.055
	c0.005,0.368,0.02,0.741,0.046,1.114c0.025,0.369,0.048,0.748,0.063,1.133H341.295z M325.694,307.771
	c-0.253-0.042-0.515-0.084-0.805-0.115c-0.29-0.03-0.579-0.048-0.869-0.048c-0.709,0-1.331,0.121-1.857,0.364
	c-0.531,0.241-0.99,0.578-1.374,1.026c-0.383,0.44-0.714,0.962-0.994,1.567h-0.052v-2.631h-4.499v14.286h4.935v-6.029
	c0-0.938,0.143-1.737,0.422-2.405c0.278-0.663,0.68-1.179,1.216-1.531c0.537-0.352,1.188-0.532,1.957-0.537
	c0.284-0.005,0.567,0.005,0.847,0.022c0.274,0.015,0.547,0.062,0.826,0.146L325.694,307.771z M302.741,313.723
	c0.037-0.552,0.153-1.057,0.363-1.51c0.206-0.447,0.505-0.804,0.895-1.073c0.395-0.268,0.89-0.399,1.483-0.405
	c0.653,0.006,1.186,0.138,1.59,0.405c0.399,0.27,0.695,0.626,0.878,1.073c0.185,0.453,0.279,0.958,0.274,1.51H302.741z
	 M312.666,316.519v-0.905c0-0.854-0.079-1.68-0.243-2.463c-0.163-0.789-0.42-1.521-0.773-2.194
	c-0.347-0.668-0.804-1.258-1.368-1.752c-0.563-0.505-1.24-0.896-2.047-1.174c-0.799-0.278-1.725-0.422-2.778-0.422
	c-1.115,0-2.141,0.169-3.071,0.5c-0.933,0.331-1.737,0.816-2.423,1.458c-0.683,0.643-1.215,1.422-1.588,2.348
	c-0.374,0.915-0.562,1.967-0.574,3.151c0.013,1.179,0.222,2.235,0.638,3.156c0.416,0.927,1.005,1.712,1.753,2.357
	c0.746,0.644,1.625,1.132,2.636,1.463c1.004,0.343,2.104,0.505,3.287,0.512c0.921,0,1.827-0.069,2.711-0.217
	c0.885-0.146,1.726-0.374,2.526-0.688v-3.484c-0.748,0.389-1.49,0.679-2.232,0.847c-0.74,0.175-1.451,0.255-2.131,0.248
	c-0.804,0.007-1.499-0.085-2.094-0.273c-0.594-0.179-1.073-0.475-1.425-0.879c-0.354-0.404-0.584-0.937-0.675-1.588H312.666z
	 M284.588,314.928c0-0.473,0.063-0.926,0.194-1.352c0.133-0.421,0.326-0.8,0.579-1.126c0.252-0.326,0.568-0.583,0.937-0.773
	c0.374-0.184,0.794-0.284,1.279-0.284c0.604,0,1.137,0.168,1.584,0.484c0.453,0.321,0.8,0.753,1.052,1.315
	c0.253,0.558,0.374,1.198,0.379,1.926c-0.005,0.7-0.146,1.326-0.416,1.878c-0.268,0.542-0.636,0.973-1.089,1.289
	c-0.453,0.311-0.953,0.479-1.51,0.484c-0.621-0.005-1.158-0.174-1.605-0.489c-0.442-0.321-0.789-0.769-1.026-1.347
	C284.708,316.365,284.588,315.691,284.588,314.928z M295.528,301.658h-4.964v8.112h-0.058c-0.415-0.542-0.883-0.977-1.395-1.293
	c-0.505-0.311-1.052-0.542-1.642-0.674c-0.583-0.137-1.21-0.2-1.873-0.195c-0.789,0-1.504,0.139-2.152,0.41
	c-0.642,0.271-1.21,0.645-1.7,1.116c-0.494,0.473-0.916,1.01-1.248,1.631c-0.332,0.611-0.583,1.265-0.758,1.952
	c-0.168,0.695-0.257,1.396-0.257,2.102c0,1.066,0.148,2.062,0.42,2.988c0.285,0.931,0.7,1.752,1.247,2.463
	c0.56,0.71,1.237,1.261,2.046,1.667c0.811,0.406,1.748,0.604,2.816,0.616c0.762-0.007,1.479-0.139,2.141-0.396
	c0.663-0.258,1.237-0.6,1.722-1.031c0.478-0.437,0.831-0.921,1.042-1.453h0.058v2.548h4.553V301.658z M267.666,313.723
	c0.037-0.552,0.154-1.057,0.368-1.51c0.202-0.447,0.501-0.804,0.894-1.073c0.393-0.268,0.887-0.399,1.481-0.405
	c0.653,0.006,1.185,0.138,1.59,0.405c0.402,0.27,0.693,0.626,0.88,1.073c0.186,0.453,0.276,0.958,0.271,1.51H267.666z
	 M277.595,316.519v-0.905c0-0.854-0.08-1.68-0.246-2.463c-0.163-0.789-0.417-1.521-0.771-2.194c-0.352-0.668-0.81-1.258-1.374-1.752
	c-0.56-0.505-1.242-0.896-2.042-1.174c-0.798-0.278-1.729-0.422-2.784-0.422c-1.112,0-2.136,0.169-3.07,0.5
	c-0.929,0.331-1.737,0.816-2.418,1.458c-0.687,0.643-1.215,1.422-1.589,2.348c-0.376,0.915-0.568,1.967-0.574,3.151
	c0.005,1.179,0.219,2.235,0.636,3.156c0.416,0.927,1.001,1.712,1.75,2.357c0.75,0.644,1.629,1.132,2.635,1.463
	c1.006,0.343,2.105,0.505,3.289,0.512c0.923,0,1.826-0.069,2.708-0.217c0.889-0.146,1.729-0.374,2.528-0.688v-3.484
	c-0.744,0.389-1.488,0.679-2.228,0.847c-0.744,0.175-1.455,0.255-2.131,0.248c-0.804,0.007-1.503-0.085-2.097-0.273
	c-0.594-0.179-1.07-0.475-1.425-0.879s-0.582-0.937-0.673-1.588H277.595z M248.28,322.222h5.098v-7.704h7.379v-3.62h-7.379v-4.199
	h7.707v-3.613H248.28V322.222z M227.275,313.723c0.037-0.552,0.155-1.057,0.365-1.51c0.206-0.447,0.503-0.804,0.895-1.073
	c0.394-0.268,0.885-0.399,1.481-0.405c0.654,0.006,1.183,0.138,1.588,0.405c0.406,0.27,0.695,0.626,0.884,1.073
	c0.182,0.453,0.274,0.958,0.271,1.51H227.275z M237.201,316.519v-0.905c0-0.854-0.079-1.68-0.242-2.463
	c-0.165-0.789-0.421-1.521-0.772-2.194c-0.354-0.668-0.808-1.258-1.372-1.752c-0.562-0.505-1.242-0.896-2.045-1.174
	c-0.796-0.278-1.725-0.422-2.78-0.422c-1.115,0-2.141,0.169-3.073,0.5c-0.925,0.331-1.736,0.816-2.417,1.458
	c-0.685,0.643-1.217,1.422-1.591,2.348c-0.373,0.915-0.566,1.967-0.57,3.151c0.003,1.179,0.218,2.235,0.634,3.156
	c0.416,0.927,1,1.712,1.752,2.357c0.747,0.644,1.626,1.132,2.634,1.463c1.008,0.343,2.104,0.505,3.289,0.512
	c0.924,0,1.828-0.069,2.709-0.217c0.887-0.146,1.727-0.374,2.526-0.688v-3.484c-0.746,0.389-1.486,0.679-2.229,0.847
	c-0.747,0.175-1.455,0.255-2.132,0.248c-0.801,0.007-1.501-0.085-2.095-0.273c-0.596-0.179-1.069-0.475-1.427-0.879
	c-0.352-0.404-0.579-0.937-0.67-1.588H237.201z M209.121,314.928c0-0.473,0.064-0.926,0.198-1.352
	c0.131-0.421,0.323-0.8,0.572-1.126c0.259-0.326,0.574-0.583,0.942-0.773c0.37-0.184,0.798-0.284,1.276-0.284
	c0.608,0,1.138,0.168,1.587,0.484c0.45,0.321,0.8,0.753,1.05,1.315c0.252,0.558,0.375,1.198,0.379,1.926
	c-0.004,0.7-0.145,1.326-0.415,1.878c-0.271,0.542-0.636,0.973-1.088,1.289c-0.453,0.311-0.954,0.479-1.513,0.484
	c-0.621-0.005-1.158-0.174-1.604-0.489c-0.446-0.321-0.788-0.769-1.025-1.347C209.245,316.365,209.121,315.691,209.121,314.928z
	 M220.063,301.658h-4.964v8.112h-0.056c-0.42-0.542-0.887-0.977-1.394-1.293c-0.504-0.311-1.055-0.542-1.644-0.674
	c-0.587-0.137-1.213-0.2-1.871-0.195c-0.79,0-1.508,0.139-2.153,0.41c-0.645,0.271-1.21,0.645-1.705,1.116
	c-0.492,0.473-0.909,1.01-1.24,1.631c-0.335,0.611-0.584,1.265-0.761,1.952c-0.168,0.695-0.256,1.396-0.256,2.102
	c0,1.066,0.143,2.062,0.421,2.988c0.284,0.931,0.7,1.752,1.247,2.463c0.555,0.71,1.233,1.261,2.05,1.667
	c0.807,0.406,1.743,0.604,2.81,0.616c0.768-0.007,1.478-0.139,2.141-0.396c0.663-0.258,1.238-0.6,1.718-1.031
	c0.481-0.437,0.833-0.921,1.046-1.453h0.056v2.548h4.554V301.658z M191.873,317.696c0.005-0.458,0.141-0.82,0.402-1.101
	c0.263-0.277,0.621-0.478,1.067-0.604c0.448-0.126,0.956-0.19,1.518-0.186c0.373,0,0.732,0.012,1.086,0.032
	c0.352,0.017,0.683,0.037,1,0.047c0,0.421-0.074,0.832-0.217,1.236c-0.136,0.396-0.342,0.758-0.607,1.079
	c-0.266,0.327-0.584,0.58-0.958,0.769c-0.375,0.189-0.796,0.284-1.262,0.289c-0.389,0-0.737-0.063-1.037-0.184
	c-0.308-0.126-0.545-0.3-0.72-0.532C191.964,318.313,191.878,318.028,191.873,317.696z M201.825,322.222
	c-0.103-0.563-0.175-1.125-0.217-1.685c-0.037-0.563-0.056-1.125-0.056-1.688v-5.32c-0.005-1.084-0.192-2.006-0.547-2.764
	c-0.363-0.757-0.855-1.368-1.488-1.836c-0.626-0.458-1.347-0.799-2.164-1.015c-0.813-0.206-1.682-0.312-2.603-0.307
	c-1.05-0.005-2.046,0.074-2.984,0.237c-0.942,0.163-1.846,0.416-2.719,0.774l0.084,3.346c0.687-0.378,1.42-0.653,2.191-0.821
	c0.774-0.169,1.557-0.252,2.36-0.247c0.603-0.005,1.147,0.063,1.631,0.205c0.49,0.148,0.88,0.396,1.171,0.759
	c0.292,0.357,0.448,0.856,0.461,1.505c-0.321-0.059-0.685-0.101-1.09-0.139c-0.404-0.035-0.808-0.057-1.212-0.057
	c-0.444,0-0.934,0.021-1.463,0.064c-0.526,0.035-1.072,0.113-1.619,0.235c-0.552,0.116-1.084,0.284-1.594,0.505
	c-0.514,0.227-0.971,0.517-1.376,0.874c-0.404,0.362-0.729,0.801-0.96,1.331c-0.237,0.526-0.363,1.152-0.367,1.873
	c0.003,0.773,0.15,1.446,0.438,2.011c0.289,0.567,0.678,1.032,1.176,1.398c0.496,0.369,1.07,0.643,1.705,0.821
	c0.639,0.179,1.314,0.27,2.027,0.27c0.674,0,1.287-0.096,1.827-0.274c0.542-0.184,1.037-0.463,1.481-0.842
	c0.442-0.384,0.846-0.868,1.218-1.463h0.056c0.005,0.368,0.017,0.741,0.043,1.114c0.029,0.369,0.051,0.748,0.064,1.133H201.825z
	 M174.048,314.928c0-0.473,0.062-0.926,0.197-1.352c0.131-0.421,0.323-0.8,0.576-1.126c0.255-0.326,0.57-0.583,0.939-0.773
	c0.372-0.184,0.798-0.284,1.276-0.284c0.609,0,1.138,0.168,1.587,0.484c0.449,0.321,0.799,0.753,1.052,1.315
	c0.251,0.558,0.374,1.198,0.379,1.926c-0.005,0.7-0.146,1.326-0.414,1.878c-0.27,0.542-0.638,0.973-1.091,1.289
	c-0.453,0.311-0.954,0.479-1.513,0.484c-0.62-0.005-1.156-0.174-1.604-0.489c-0.442-0.321-0.788-0.769-1.022-1.347
	C174.171,316.365,174.048,315.691,174.048,314.928z M184.99,301.658h-4.965v8.112h-0.055c-0.417-0.542-0.884-0.977-1.394-1.293
	c-0.505-0.311-1.055-0.542-1.643-0.674c-0.585-0.137-1.211-0.2-1.873-0.195c-0.789,0-1.506,0.139-2.15,0.41
	c-0.645,0.271-1.21,0.645-1.704,1.116c-0.495,0.473-0.912,1.01-1.244,1.631c-0.335,0.611-0.584,1.265-0.761,1.952
	c-0.165,0.695-0.256,1.396-0.256,2.102c0,1.066,0.143,2.062,0.422,2.988c0.283,0.931,0.698,1.752,1.247,2.463
	c0.554,0.71,1.235,1.261,2.048,1.667c0.808,0.406,1.747,0.604,2.811,0.616c0.768-0.007,1.481-0.139,2.145-0.396
	c0.663-0.258,1.237-0.6,1.718-1.031c0.478-0.437,0.832-0.921,1.044-1.453h0.055v2.548h4.555V301.658z M165.987,301.984h-4.937v3.62
	h4.937V301.984z M161.05,322.222h4.937v-14.286h-4.937V322.222z M146.215,321.864c0.478,0.158,0.976,0.284,1.494,0.383
	c0.515,0.106,1.079,0.181,1.682,0.232c0.599,0.048,1.271,0.074,2.008,0.074c0.651,0,1.296-0.042,1.936-0.134
	c0.636-0.088,1.238-0.239,1.804-0.445c0.569-0.215,1.072-0.505,1.511-0.868c0.434-0.364,0.781-0.821,1.028-1.363
	c0.251-0.552,0.378-1.205,0.382-1.963c-0.009-0.773-0.143-1.409-0.406-1.919c-0.266-0.513-0.612-0.922-1.052-1.232
	c-0.434-0.315-0.914-0.563-1.434-0.753c-0.522-0.179-1.042-0.332-1.564-0.447c-0.52-0.121-1.001-0.236-1.436-0.356
	c-0.438-0.116-0.787-0.265-1.05-0.449c-0.266-0.178-0.397-0.425-0.407-0.736c0.005-0.2,0.072-0.363,0.203-0.494
	c0.135-0.126,0.313-0.227,0.532-0.301c0.224-0.073,0.466-0.121,0.737-0.153c0.263-0.03,0.534-0.041,0.805-0.041
	c0.414,0,0.854,0.036,1.311,0.11c0.458,0.069,0.905,0.179,1.341,0.316c0.439,0.142,0.835,0.32,1.185,0.53l0.385-3.425
	c-0.801-0.31-1.622-0.526-2.467-0.646c-0.847-0.122-1.696-0.181-2.551-0.176c-0.577,0-1.153,0.054-1.729,0.163
	c-0.577,0.111-1.125,0.284-1.645,0.522c-0.522,0.23-0.988,0.524-1.395,0.894c-0.405,0.363-0.726,0.801-0.958,1.306
	c-0.239,0.51-0.359,1.09-0.364,1.747c0.008,0.73,0.138,1.336,0.39,1.826c0.252,0.478,0.59,0.873,1.005,1.168
	c0.416,0.299,0.873,0.542,1.37,0.72c0.5,0.179,0.998,0.332,1.495,0.453c0.498,0.127,0.956,0.253,1.372,0.389
	c0.416,0.126,0.749,0.295,1.001,0.5c0.252,0.2,0.382,0.475,0.387,0.811c-0.005,0.327-0.103,0.574-0.292,0.736
	c-0.19,0.168-0.437,0.279-0.74,0.343c-0.303,0.053-0.626,0.08-0.968,0.073c-0.599-0.005-1.177-0.048-1.737-0.146
	c-0.562-0.095-1.089-0.211-1.584-0.363c-0.49-0.153-0.925-0.306-1.314-0.474L146.215,321.864z M145.037,307.771
	c-0.252-0.042-0.519-0.084-0.806-0.115c-0.286-0.03-0.576-0.048-0.869-0.048c-0.707,0-1.331,0.121-1.854,0.364
	c-0.532,0.241-0.986,0.578-1.374,1.026c-0.38,0.44-0.715,0.962-0.994,1.567h-0.054v-2.631h-4.497v14.286h4.936v-6.029
	c0-0.938,0.138-1.737,0.42-2.405c0.276-0.663,0.682-1.179,1.215-1.531c0.534-0.352,1.19-0.532,1.954-0.537
	c0.29-0.005,0.572,0.005,0.845,0.022c0.281,0.015,0.556,0.062,0.83,0.146L145.037,307.771z M122.084,313.723
	c0.037-0.552,0.155-1.057,0.365-1.51c0.205-0.447,0.503-0.804,0.895-1.073c0.394-0.268,0.885-0.399,1.481-0.405
	c0.651,0.006,1.183,0.138,1.588,0.405c0.405,0.27,0.695,0.626,0.884,1.073c0.182,0.453,0.274,0.958,0.271,1.51H122.084z
	 M132.01,316.519v-0.905c0-0.854-0.079-1.68-0.245-2.463c-0.163-0.789-0.418-1.521-0.771-2.194
	c-0.353-0.668-0.808-1.258-1.372-1.752c-0.562-0.505-1.244-0.896-2.041-1.174c-0.8-0.278-1.729-0.422-2.784-0.422
	c-1.116,0-2.139,0.169-3.073,0.5c-0.925,0.331-1.736,0.816-2.415,1.458c-0.687,0.643-1.215,1.422-1.592,2.348
	c-0.373,0.915-0.567,1.967-0.57,3.151c0.003,1.179,0.219,2.235,0.634,3.156c0.416,0.927,1,1.712,1.749,2.357
	c0.752,0.644,1.629,1.132,2.637,1.463c1.008,0.343,2.104,0.505,3.289,0.512c0.924,0,1.828-0.069,2.709-0.217
	c0.887-0.146,1.729-0.374,2.528-0.688v-3.484c-0.744,0.389-1.491,0.679-2.23,0.847c-0.746,0.175-1.456,0.255-2.132,0.248
	c-0.802,0.007-1.501-0.085-2.096-0.273c-0.596-0.179-1.072-0.475-1.427-0.879c-0.353-0.404-0.58-0.937-0.67-1.588H132.01z
	 M105.109,322.222h5.622l5.291-14.286h-4.909l-2.989,10.171h-0.052l-2.962-10.171h-5.295L105.109,322.222z M97.431,301.984h-4.937
	v3.62h4.937V301.984z M92.495,322.222h4.937v-14.286h-4.937V322.222z M73.626,322.222h4.938v-6.029c0-1.531,0.26-2.663,0.776-3.39
	c0.513-0.726,1.282-1.089,2.294-1.084c0.452-0.005,0.844,0.105,1.189,0.337c0.337,0.227,0.608,0.605,0.795,1.13
	c0.191,0.527,0.289,1.232,0.292,2.128v6.908h4.938v-8.914c0-0.748-0.102-1.458-0.307-2.136c-0.206-0.679-0.527-1.289-0.96-1.826
	c-0.437-0.532-1-0.953-1.694-1.263c-0.692-0.312-1.523-0.475-2.497-0.475c-0.755,0-1.46,0.101-2.128,0.307
	c-0.668,0.216-1.268,0.53-1.795,0.967c-0.523,0.443-0.952,1.001-1.286,1.685h-0.056v-2.631h-4.499V322.222z M70.582,303.085h-5.098
	v11.023c0.005,0.631-0.045,1.23-0.148,1.789c-0.097,0.562-0.273,1.057-0.521,1.482c-0.245,0.433-0.579,0.77-1.008,1.012
	c-0.426,0.246-0.965,0.373-1.615,0.378c-0.647-0.005-1.181-0.132-1.613-0.378c-0.423-0.242-0.763-0.579-1.009-1.012
	c-0.243-0.426-0.417-0.921-0.521-1.482c-0.101-0.559-0.151-1.158-0.145-1.789v-11.023h-5.102v11.87
	c0.006,1.309,0.21,2.442,0.608,3.399c0.402,0.952,0.973,1.742,1.717,2.361c0.742,0.621,1.624,1.079,2.646,1.385
	c1.029,0.3,2.169,0.453,3.418,0.453c1.252,0,2.392-0.153,3.42-0.453c1.023-0.306,1.905-0.764,2.65-1.385
	c0.742-0.619,1.313-1.409,1.715-2.361c0.402-0.957,0.603-2.091,0.605-3.399V303.085z M108.631,170.747H88.609v28.23
	c0,6.808-2.657,10.212-7.964,10.212c-4.368,0-6.553-2.935-6.553-8.808v-29.635H54.271v29.135c0,6.604,0.666,11.245,2.002,13.913
	c2.736,5.471,7.943,8.207,15.618,8.207c6.675,0,12.247-2.835,16.719-8.507v7.308h20.022V170.747z M166.894,191.668
	c0-6.469-0.636-11.008-1.907-13.612c-2.745-5.67-8-8.509-15.765-8.509c-6.759,0-12.382,2.839-16.865,8.509v-7.309h-19.824v50.056
	h19.824v-28.13c0-6.942,2.671-10.413,8.018-10.413c4.463,0,6.7,2.97,6.7,8.908v29.635h19.819V191.668z M170.897,167.039h19.824
	v-12.225h-19.824V167.039z M190.722,170.747h-19.824v50.056h19.824v-49.62V170.747z M279.516,205.585
	c-0.602,1.338-1.551,2.399-2.854,3.206c-1.302,0.8-2.62,1.199-3.953,1.199c-1.338,0-2.54-0.585-3.605-1.753
	c-1.068-1.168-1.602-2.515-1.602-4.052c0-3.735,2.971-6.408,8.908-8.009c2.004-0.537,3.405-0.904,4.204-1.104v4.508
	C280.614,201.918,280.251,203.917,279.516,205.585z M229.764,205.508c-1.602,4.124-4.042,6.187-7.31,6.187
	c-2.471,0-4.457-1.445-5.956-4.341c-1.503-2.895-2.252-6.772-2.252-11.629s0.781-8.68,2.351-11.477
	c1.569-2.791,3.721-4.19,6.457-4.19c2.605,0,4.655,1.363,6.159,4.095c1.5,2.725,2.249,6.448,2.249,11.173
	C231.462,199.188,230.896,202.581,229.764,205.508z M299.937,205.085v-11.612c0-7.742-1.168-13.146-3.506-16.218
	c-3.935-5.138-10.507-7.708-19.718-7.708c-8.212,0-15.853,2.302-22.926,6.909l5.584,8.908c4.255-3.537,8.378-5.306,12.369-5.306
	c4.058,0,7.015,1.663,8.874,4.994l-8.081,1.7c-7.318,1.527-12.672,3.628-16.064,6.29c-1.7,1.342-3.092,2.794-4.18,4.357
	c0.065-0.891,0.099-1.8,0.099-2.727c0-7.472-2.018-13.531-6.057-18.169c-4.038-4.636-9.296-6.956-15.767-6.956
	c-3.404,0-6.325,0.584-8.758,1.752c-2.439,1.168-4.957,3.221-7.559,6.156v-6.708h-19.422v63.301h19.422v-19.954
	c2.533,2.942,4.869,4.988,7.005,6.156c2.138,1.169,4.64,1.752,7.51,1.752c6.675,0,12.279-2.63,16.816-7.908
	c1.555-1.804,2.845-3.751,3.866-5.835c0.313,3.52,1.794,6.609,4.443,9.251c3.004,2.998,6.507,4.492,10.51,4.492
	c5.675,0,10.879-2.229,15.619-6.703c0,2,0.235,3.836,0.7,5.504h21.025C300.542,216.999,299.937,211.758,299.937,205.085z
	 M390.437,191.373c0-6.744-0.769-11.447-2.306-14.118c-2.942-5.138-8.087-7.708-15.438-7.708c-7.287,0-13.003,2.839-17.148,8.509
	c-2.536-5.67-7.318-8.509-14.334-8.509c-7.487,0-13.27,2.839-17.349,8.509v-7.309H304.04v50.056h19.822v-28.404
	c0-2.809,0.206-4.783,0.611-5.921c1.005-2.81,3.188-4.217,6.551-4.217c2.559,0,4.34,1.004,5.347,3.013
	c0.542,1.069,0.81,3.512,0.81,7.325v28.204h19.822v-28.43c0-2.536,0.236-4.441,0.711-5.707c1.083-2.935,3.251-4.406,6.498-4.406
	c2.578,0,4.404,1.001,5.488,3.004c0.61,1.136,0.915,3.236,0.915,6.31v29.229h19.822V191.373z M479.136,205.585
	c-0.605,1.338-1.557,2.399-2.857,3.206c-1.3,0.8-2.621,1.199-3.951,1.199c-1.337,0-2.536-0.585-3.604-1.753
	c-1.069-1.168-1.606-2.515-1.606-4.052c0-3.735,2.968-6.408,8.908-8.009c2.006-0.537,3.405-0.904,4.211-1.104v4.508
	C480.237,201.918,479.869,203.917,479.136,205.585z M429.38,205.508c-1.601,4.124-4.041,6.187-7.311,6.187
	c-2.466,0-4.456-1.445-5.955-4.341c-1.5-2.895-2.252-6.772-2.252-11.629s0.784-8.68,2.352-11.477c1.568-2.791,3.721-4.19,6.457-4.19
	c2.604,0,4.655,1.363,6.162,4.095c1.499,2.725,2.252,6.448,2.252,11.173C431.085,199.188,430.516,202.581,429.38,205.508z
	 M499.558,205.085v-11.612c0-7.742-1.174-13.146-3.504-16.218c-3.941-5.138-10.515-7.708-19.722-7.708
	c-8.215,0-15.855,2.302-22.928,6.909l5.585,8.908c4.256-3.537,8.376-5.306,12.369-5.306c4.052,0,7.015,1.663,8.878,4.994l-8.083,1.7
	c-7.324,1.527-12.677,3.628-16.069,6.29c-1.699,1.342-3.095,2.794-4.18,4.357c0.064-0.891,0.102-1.8,0.102-2.727
	c0-7.472-2.021-13.531-6.063-18.169c-4.035-4.636-9.292-6.956-15.765-6.956c-3.404,0-6.324,0.584-8.755,1.752
	c-2.442,1.168-4.958,3.221-7.562,6.156v-6.708h-19.422v63.301h19.422v-19.954c2.537,2.942,4.872,4.988,7.009,6.156
	c2.13,1.169,4.636,1.752,7.51,1.752c6.671,0,12.275-2.63,16.815-7.908c1.559-1.804,2.841-3.751,3.868-5.84
	c0.312,3.524,1.788,6.614,4.441,9.256c2.999,2.998,6.508,4.492,10.513,4.492c5.667,0,10.877-2.229,15.612-6.703
	c0,2,0.237,3.836,0.7,5.504h21.025C500.152,216.999,499.558,211.758,499.558,205.085z"/>
</svg>
