<?xml version="1.0" encoding="utf-8"?>
<!-- Generator: Adobe Illustrator 15.1.0, SVG Export Plug-In . SVG Version: 6.00 Build 0)  -->
<!DOCTYPE svg PUBLIC "-//W3C//DTD SVG 1.1//EN" "http://www.w3.org/Graphics/SVG/1.1/DTD/svg11.dtd">
<svg version="1.1" id="Camada_1" xmlns="http://www.w3.org/2000/svg" xmlns:xlink="http://www.w3.org/1999/xlink" x="0px" y="0px"
	 width="573px" height="392.285px" viewBox="-274.766 -136.067 573 392.285" enable-background="new -274.766 -136.067 573 392.285"
	 xml:space="preserve">
<rect x="-272.237" y="-132.424" width="568.15" height="385.432"/>
<path fill="#009640" d="M-58.856-34.447c1.871-4.134,2.917-8.715,2.917-13.55c0-18.17-14.731-32.896-32.901-32.896
	c-18.17,0-32.901,14.726-32.901,32.896c0,4.834,1.046,9.438,2.922,13.571c-16.399,1.866-29.144,15.782-29.144,32.689
	c0,18.17,14.727,32.901,32.9,32.901c7.079,0,13.635-2.237,19-6.043h14.676c5.365,3.806,11.92,6.043,18.999,6.043
	c18.17,0,32.902-14.731,32.902-32.901C-29.486-18.71-42.341-32.687-58.856-34.447 M-220.146,124.147
	c17.984-5.698,80.347-19.295,231.506-0.879c170.85,20.812,226.011,0.804,232.923-2.117v7.35
	c-14.655,5.117-75.64,20.878-233.735,1.619c-158.857-19.357-217.666-3.413-230.693,1.269V124.147z"/>
<path fill="#FFFFFF" d="M232.492,190.792c0.012-0.469,0.154-0.848,0.417-1.136c0.284-0.296,0.645-0.506,1.116-0.628
	c0.458-0.132,0.994-0.198,1.573-0.193c0.384,0,0.755,0.011,1.127,0.033c0.361,0.016,0.711,0.043,1.038,0.054
	c0,0.432-0.076,0.858-0.218,1.28c-0.143,0.403-0.355,0.787-0.63,1.116c-0.279,0.344-0.612,0.603-0.999,0.805
	c-0.394,0.2-0.826,0.298-1.313,0.298c-0.404,0-0.767-0.065-1.07-0.186c-0.325-0.131-0.569-0.314-0.756-0.558
	C232.591,191.438,232.503,191.137,232.492,190.792 M242.833,195.494c-0.109-0.583-0.181-1.169-0.226-1.753
	c-0.037-0.585-0.058-1.172-0.058-1.756v-5.523c-0.008-1.127-0.198-2.084-0.576-2.875c-0.371-0.787-0.88-1.423-1.535-1.904
	c-0.651-0.479-1.405-0.831-2.249-1.056c-0.853-0.214-1.754-0.321-2.7-0.321c-1.094,0-2.131,0.082-3.106,0.251
	c-0.979,0.164-1.919,0.428-2.821,0.806l0.076,3.476c0.729-0.394,1.488-0.679,2.286-0.853c0.804-0.169,1.62-0.263,2.45-0.257
	c0.622-0.006,1.192,0.065,1.694,0.213c0.515,0.147,0.909,0.41,1.214,0.791c0.306,0.368,0.472,0.887,0.48,1.56
	c-0.333-0.061-0.71-0.104-1.127-0.135c-0.42-0.034-0.84-0.068-1.267-0.068c-0.461,0-0.969,0.023-1.521,0.068
	c-0.547,0.042-1.104,0.117-1.672,0.25c-0.585,0.114-1.127,0.296-1.663,0.524c-0.535,0.236-1.012,0.537-1.432,0.908
	c-0.417,0.371-0.755,0.827-0.995,1.378c-0.252,0.552-0.373,1.203-0.384,1.951c0.011,0.804,0.159,1.505,0.46,2.09
	c0.295,0.586,0.699,1.066,1.226,1.455c0.512,0.384,1.104,0.667,1.765,0.854c0.663,0.181,1.367,0.278,2.106,0.278
	c0.699,0,1.339-0.098,1.903-0.284c0.563-0.191,1.07-0.481,1.53-0.875c0.458-0.395,0.886-0.903,1.269-1.521h0.065
	c0,0.385,0.012,0.778,0.043,1.16c0.026,0.383,0.056,0.781,0.066,1.181h4.697V195.494z M220.638,187.915
	c0,0.8-0.132,1.499-0.372,2.086c-0.252,0.595-0.601,1.065-1.066,1.397c-0.458,0.336-1.013,0.505-1.661,0.511
	c-0.575-0.006-1.104-0.175-1.577-0.505c-0.468-0.328-0.846-0.775-1.13-1.339c-0.279-0.573-0.427-1.225-0.427-1.952
	c0-0.743,0.137-1.41,0.389-1.99c0.263-0.579,0.617-1.039,1.087-1.367c0.471-0.333,1.023-0.513,1.658-0.513
	c0.497,0,0.938,0.108,1.316,0.294c0.388,0.195,0.712,0.471,0.984,0.81c0.263,0.339,0.459,0.732,0.59,1.171
	C220.577,186.953,220.638,187.424,220.638,187.915z M209.265,201.477h5.129v-8.06h0.065c0.329,0.585,0.743,1.062,1.247,1.422
	c0.503,0.351,1.05,0.612,1.651,0.765c0.591,0.166,1.197,0.247,1.804,0.242c1.104-0.011,2.077-0.221,2.921-0.637
	c0.836-0.425,1.547-0.998,2.123-1.736c0.573-0.745,1.003-1.592,1.294-2.56c0.289-0.964,0.438-1.991,0.438-3.106
	c0-0.72-0.092-1.443-0.267-2.153c-0.183-0.724-0.445-1.4-0.788-2.034c-0.352-0.641-0.783-1.203-1.291-1.706
	c-0.516-0.499-1.104-0.887-1.771-1.171c-0.667-0.284-1.418-0.426-2.231-0.426c-0.789,0-1.538,0.103-2.243,0.317
	c-0.71,0.218-1.352,0.546-1.919,0.988c-0.563,0.448-1.022,1.022-1.367,1.712H214v-2.68h-4.734V201.477z M180.887,195.494h5.127
	v-6.265c0.011-1.592,0.269-2.768,0.772-3.521c0.508-0.756,1.229-1.132,2.137-1.126c0.494,0.004,0.875,0.131,1.182,0.382
	c0.306,0.252,0.525,0.601,0.661,1.044c0.136,0.444,0.213,0.945,0.213,1.514v7.973h5.125v-6.265c0.01-1.587,0.267-2.762,0.771-3.521
	c0.514-0.756,1.225-1.126,2.144-1.122c0.481,0.006,0.875,0.138,1.181,0.389c0.3,0.252,0.525,0.596,0.656,1.039
	c0.142,0.443,0.213,0.945,0.213,1.508v7.984h5.124v-8.755c0.006-1.005-0.064-1.906-0.209-2.694
	c-0.151-0.799-0.424-1.471-0.803-2.024c-0.388-0.558-0.919-0.984-1.607-1.279c-0.684-0.295-1.558-0.437-2.618-0.437
	c-0.713,0-1.391,0.097-2.041,0.294c-0.649,0.198-1.252,0.509-1.798,0.937c-0.56,0.409-1.035,0.957-1.434,1.624
	c-0.273-0.651-0.635-1.182-1.082-1.603c-0.471-0.421-0.996-0.738-1.598-0.941c-0.602-0.208-1.259-0.311-1.968-0.311
	c-0.784,0-1.521,0.107-2.22,0.322c-0.69,0.225-1.307,0.552-1.854,1.007c-0.553,0.459-1,1.044-1.34,1.754h-0.054v-2.733h-4.68
	V195.494z M167.555,190.792c0-0.469,0.143-0.848,0.414-1.136c0.274-0.296,0.64-0.506,1.104-0.628
	c0.472-0.132,0.996-0.198,1.581-0.193c0.378,0,0.76,0.011,1.119,0.033c0.367,0.016,0.713,0.043,1.046,0.054
	c0,0.432-0.077,0.858-0.224,1.28c-0.143,0.403-0.351,0.787-0.624,1.116c-0.283,0.344-0.611,0.603-1.005,0.805
	c-0.395,0.2-0.821,0.298-1.302,0.298c-0.405,0-0.767-0.065-1.084-0.186c-0.316-0.131-0.569-0.314-0.755-0.558
	C167.647,191.438,167.555,191.137,167.555,190.792z M177.894,195.494c-0.102-0.583-0.182-1.169-0.224-1.753
	c-0.039-0.585-0.055-1.172-0.055-1.756v-5.523c-0.011-1.127-0.202-2.084-0.578-2.875c-0.374-0.787-0.888-1.423-1.542-1.904
	c-0.647-0.479-1.402-0.831-2.249-1.056c-0.836-0.214-1.756-0.321-2.695-0.321c-1.094,0-2.133,0.082-3.106,0.251
	c-0.979,0.164-1.919,0.428-2.825,0.806l0.093,3.476c0.709-0.394,1.475-0.679,2.272-0.853c0.799-0.169,1.619-0.263,2.452-0.257
	c0.633-0.006,1.195,0.065,1.698,0.213c0.511,0.147,0.914,0.41,1.215,0.791c0.312,0.368,0.466,0.887,0.479,1.56
	c-0.332-0.061-0.709-0.104-1.13-0.135c-0.417-0.034-0.843-0.068-1.264-0.068c-0.459,0-0.968,0.023-1.515,0.068
	c-0.553,0.042-1.114,0.117-1.683,0.25c-0.581,0.114-1.128,0.296-1.658,0.524c-0.536,0.236-1.007,0.537-1.433,0.908
	c-0.416,0.371-0.76,0.827-1.002,1.378c-0.239,0.552-0.371,1.203-0.376,1.951c0.005,0.804,0.157,1.505,0.459,2.09
	c0.301,0.586,0.7,1.066,1.221,1.455c0.523,0.389,1.109,0.667,1.771,0.854c0.657,0.181,1.366,0.278,2.111,0.278
	c0.694,0,1.323-0.098,1.891-0.284c0.57-0.191,1.072-0.481,1.533-0.875c0.469-0.395,0.883-0.903,1.272-1.521h0.06
	c0.011,0.385,0.022,0.778,0.055,1.16c0.022,0.383,0.045,0.781,0.066,1.181h4.686V195.494z M151.331,179.364h1.374
	c0.611,0,1.164,0.081,1.662,0.252c0.484,0.164,0.879,0.448,1.169,0.836c0.295,0.395,0.438,0.925,0.442,1.591
	c-0.004,0.689-0.147,1.237-0.442,1.635c-0.29,0.399-0.685,0.684-1.169,0.859c-0.498,0.164-1.051,0.253-1.662,0.241h-1.374V179.364z
	 M146.032,195.494h5.299v-6.954h2.057c1.655,0,3.078-0.262,4.247-0.766c1.177-0.514,2.074-1.247,2.702-2.197
	c0.623-0.957,0.932-2.105,0.94-3.451c0.01-2.22-0.722-3.877-2.188-4.938c-1.465-1.059-3.706-1.596-6.736-1.586h-6.321V195.494
	L146.032,195.494z M126.227,192.247c-0.58-0.012-1.087-0.119-1.515-0.344c-0.422-0.226-0.76-0.532-1.033-0.919
	c-0.273-0.379-0.471-0.826-0.591-1.328c-0.121-0.493-0.187-1.022-0.187-1.569c0-0.565,0.065-1.094,0.187-1.593
	c0.12-0.503,0.329-0.95,0.591-1.339c0.273-0.389,0.605-0.695,1.033-0.912c0.428-0.22,0.935-0.34,1.515-0.346
	c0.59,0.006,1.099,0.114,1.519,0.346c0.428,0.217,0.766,0.523,1.041,0.912c0.263,0.389,0.471,0.836,0.584,1.339
	c0.126,0.499,0.193,1.039,0.193,1.593c0,0.552-0.067,1.076-0.193,1.569c-0.113,0.502-0.321,0.949-0.584,1.328
	c-0.275,0.387-0.607,0.693-1.041,0.919C127.326,192.128,126.824,192.235,126.227,192.247z M126.227,195.841
	c1.234,0,2.374-0.176,3.424-0.526c1.048-0.349,1.956-0.847,2.732-1.521c0.771-0.672,1.39-1.475,1.815-2.433
	c0.438-0.962,0.656-2.055,0.656-3.279c0-1.238-0.218-2.331-0.656-3.304c-0.426-0.962-1.045-1.773-1.815-2.44
	c-0.776-0.672-1.693-1.173-2.732-1.52c-1.05-0.344-2.197-0.513-3.424-0.513c-1.225,0-2.362,0.169-3.407,0.513
	c-1.054,0.352-1.962,0.848-2.739,1.52c-0.788,0.662-1.388,1.479-1.814,2.44c-0.438,0.973-0.656,2.065-0.667,3.304
	c0.011,1.225,0.229,2.321,0.667,3.279c0.427,0.958,1.037,1.761,1.814,2.433c0.777,0.668,1.697,1.172,2.739,1.521
	C123.865,195.665,124.998,195.841,126.227,195.841z M103.863,187.915c0-0.491,0.071-0.962,0.209-1.403
	c0.129-0.438,0.332-0.826,0.59-1.172c0.268-0.344,0.591-0.607,0.977-0.803c0.384-0.192,0.827-0.294,1.325-0.294
	c0.63,0,1.186,0.168,1.653,0.502c0.468,0.333,0.823,0.781,1.085,1.367c0.262,0.579,0.394,1.246,0.394,1.995
	c0,0.728-0.151,1.378-0.425,1.953c-0.284,0.568-0.667,1.016-1.139,1.338c-0.471,0.325-0.994,0.5-1.568,0.505
	c-0.645-0.005-1.198-0.18-1.667-0.51c-0.461-0.339-0.815-0.798-1.062-1.398C103.988,189.414,103.863,188.715,103.863,187.915z
	 M115.236,174.126h-5.167v8.433h-0.055c-0.437-0.569-0.918-1.018-1.448-1.347c-0.525-0.323-1.096-0.563-1.717-0.699
	c-0.604-0.136-1.259-0.207-1.942-0.196c-0.814,0-1.569,0.136-2.236,0.426c-0.667,0.273-1.258,0.662-1.766,1.154
	c-0.509,0.498-0.946,1.055-1.285,1.701c-0.354,0.629-0.608,1.306-0.793,2.021c-0.175,0.724-0.268,1.456-0.268,2.188
	c0,1.104,0.141,2.143,0.438,3.106c0.297,0.968,0.727,1.814,1.29,2.56c0.579,0.738,1.278,1.312,2.133,1.736
	c0.842,0.423,1.809,0.626,2.915,0.637c0.803-0.005,1.535-0.143,2.225-0.405c0.688-0.272,1.285-0.622,1.782-1.071
	c0.498-0.453,0.865-0.963,1.084-1.515h0.059v2.651h4.752V174.126z M81.628,195.494h5.129v-21.368h-5.129V195.494z M67.698,190.792
	c0.01-0.469,0.146-0.848,0.414-1.136c0.285-0.296,0.65-0.506,1.116-0.628c0.466-0.132,0.995-0.198,1.574-0.193
	c0.384,0,0.761,0.011,1.127,0.033c0.361,0.016,0.711,0.043,1.038,0.054c0,0.432-0.075,0.858-0.223,1.28
	c-0.138,0.403-0.357,0.787-0.629,1.116c-0.274,0.344-0.601,0.603-0.994,0.805c-0.395,0.196-0.832,0.298-1.314,0.298
	c-0.398,0-0.767-0.065-1.077-0.186c-0.322-0.131-0.563-0.314-0.749-0.558C67.795,191.438,67.708,191.137,67.698,190.792z
	 M78.048,195.494c-0.114-0.583-0.186-1.169-0.229-1.753c-0.04-0.585-0.06-1.172-0.06-1.756v-5.523c0-1.127-0.197-2.084-0.568-2.875
	c-0.375-0.787-0.887-1.423-1.543-1.904c-0.65-0.479-1.401-0.831-2.248-1.056c-0.846-0.214-1.757-0.321-2.706-0.321
	c-1.084,0-2.122,0.082-3.102,0.251c-0.977,0.164-1.918,0.428-2.825,0.806l0.087,3.476c0.721-0.394,1.476-0.679,2.279-0.853
	c0.804-0.169,1.618-0.263,2.457-0.257c0.622-0.006,1.189,0.065,1.694,0.213c0.509,0.147,0.912,0.41,1.214,0.791
	c0.306,0.368,0.469,0.887,0.48,1.56c-0.333-0.061-0.711-0.104-1.126-0.135c-0.428-0.034-0.837-0.068-1.264-0.068
	c-0.464,0-0.974,0.023-1.515,0.068c-0.552,0.042-1.115,0.117-1.688,0.25c-0.574,0.114-1.122,0.296-1.658,0.524
	c-0.531,0.236-1.006,0.537-1.427,0.908s-0.759,0.827-1.001,1.378c-0.251,0.552-0.377,1.203-0.377,1.951
	c0,0.804,0.146,1.505,0.453,2.09c0.307,0.586,0.706,1.066,1.226,1.455c0.515,0.384,1.104,0.667,1.766,0.854
	c0.662,0.181,1.363,0.278,2.111,0.278c0.7,0,1.328-0.098,1.89-0.284c0.577-0.191,1.08-0.481,1.539-0.875
	c0.459-0.395,0.885-0.903,1.273-1.521h0.062c0,0.385,0.02,0.778,0.042,1.16c0.034,0.383,0.057,0.781,0.071,1.181h4.692V195.494z
	 M61.834,180.479c-0.261-0.044-0.54-0.086-0.835-0.119c-0.302-0.022-0.597-0.044-0.904-0.044c-0.737,0-1.381,0.119-1.935,0.372
	c-0.548,0.252-1.028,0.601-1.422,1.061c-0.399,0.459-0.744,1.006-1.038,1.63h-0.055v-2.729H50.97v14.845h5.13v-6.265
	c0-0.974,0.146-1.806,0.431-2.499c0.295-0.688,0.711-1.227,1.268-1.592c0.56-0.36,1.236-0.553,2.035-0.557
	c0.296-0.006,0.591,0.004,0.875,0.021c0.291,0.017,0.574,0.063,0.865,0.152L61.834,180.479z M37.979,186.658
	c0.037-0.574,0.158-1.094,0.377-1.563c0.207-0.465,0.524-0.832,0.929-1.117c0.405-0.278,0.918-0.413,1.541-0.413
	c0.679,0,1.225,0.135,1.652,0.413c0.409,0.285,0.721,0.652,0.907,1.117c0.191,0.469,0.294,0.993,0.285,1.563H37.979z
	 M48.296,189.567v-0.938c0-0.887-0.088-1.751-0.251-2.56c-0.174-0.821-0.438-1.576-0.81-2.275c-0.36-0.7-0.83-1.308-1.421-1.826
	c-0.584-0.525-1.291-0.93-2.134-1.215c-0.824-0.295-1.786-0.437-2.886-0.437c-1.16,0-2.221,0.169-3.194,0.514
	c-0.962,0.35-1.799,0.853-2.508,1.52c-0.718,0.674-1.264,1.478-1.658,2.44c-0.382,0.956-0.579,2.046-0.591,3.281
	c0.012,1.225,0.23,2.316,0.662,3.279c0.433,0.964,1.044,1.771,1.821,2.449c0.777,0.668,1.69,1.182,2.734,1.52
	c1.05,0.352,2.192,0.526,3.417,0.531c0.957,0,1.896-0.07,2.816-0.226c0.918-0.151,1.793-0.382,2.625-0.714v-3.615
	c-0.776,0.399-1.542,0.699-2.318,0.874c-0.771,0.182-1.51,0.263-2.214,0.263c-0.838,0-1.56-0.093-2.183-0.289
	c-0.612-0.181-1.109-0.492-1.476-0.913c-0.371-0.417-0.607-0.974-0.7-1.652h10.269V189.567z M19.117,187.915
	c0-0.491,0.065-0.962,0.2-1.403c0.136-0.438,0.341-0.826,0.598-1.172c0.26-0.344,0.593-0.607,0.976-0.803
	c0.383-0.192,0.821-0.294,1.324-0.294c0.634,0,1.18,0.168,1.651,0.502c0.469,0.333,0.826,0.781,1.094,1.367
	c0.262,0.579,0.382,1.246,0.388,1.995c-0.005,0.728-0.147,1.378-0.432,1.953c-0.279,0.568-0.656,1.016-1.126,1.338
	c-0.47,0.325-0.995,0.5-1.574,0.505c-0.64-0.005-1.204-0.18-1.663-0.51c-0.462-0.339-0.821-0.798-1.066-1.398
	C19.244,189.414,19.117,188.715,19.117,187.915z M30.482,174.126h-5.158v8.433h-0.06c-0.433-0.569-0.919-1.018-1.454-1.347
	c-0.526-0.323-1.089-0.563-1.706-0.699c-0.602-0.136-1.258-0.207-1.947-0.196c-0.818,0-1.565,0.136-2.237,0.426
	c-0.664,0.273-1.258,0.662-1.763,1.154c-0.514,0.498-0.951,1.055-1.293,1.701c-0.347,0.629-0.604,1.306-0.79,2.021
	c-0.173,0.724-0.268,1.456-0.268,2.188c0,1.104,0.15,2.143,0.438,3.106c0.294,0.968,0.727,1.814,1.292,2.56
	c0.583,0.738,1.282,1.312,2.127,1.736c0.845,0.423,1.816,0.626,2.92,0.637c0.798-0.005,1.537-0.143,2.225-0.405
	c0.69-0.272,1.286-0.622,1.789-1.071c0.498-0.453,0.864-0.963,1.082-1.515h0.056v2.651h4.735v-21.38H30.482z M1.534,186.658
	c0.037-0.574,0.161-1.094,0.38-1.563c0.213-0.465,0.521-0.832,0.929-1.117c0.41-0.278,0.924-0.413,1.538-0.413
	c0.679,0,1.233,0.135,1.655,0.413c0.419,0.285,0.722,0.652,0.916,1.117c0.191,0.469,0.287,0.993,0.281,1.563H1.534z M11.846,189.567
	v-0.938c0-0.887-0.082-1.751-0.251-2.56c-0.166-0.821-0.437-1.576-0.801-2.275c-0.363-0.7-0.839-1.308-1.427-1.826
	c-0.583-0.525-1.287-0.93-2.122-1.215c-0.828-0.295-1.798-0.437-2.896-0.437c-1.158,0-2.216,0.169-3.189,0.514
	c-0.965,0.35-1.806,0.853-2.515,1.52c-0.711,0.667-1.266,1.478-1.652,2.44c-0.391,0.956-0.588,2.046-0.594,3.281
	c0.006,1.225,0.231,2.316,0.662,3.279c0.43,0.964,1.04,1.771,1.818,2.449c0.779,0.668,1.693,1.182,2.74,1.52
	c1.047,0.352,2.187,0.526,3.414,0.531c0.957,0,1.899-0.07,2.811-0.226c0.924-0.151,1.795-0.382,2.627-0.714v-3.615
	c-0.773,0.399-1.548,0.699-2.318,0.874c-0.773,0.182-1.511,0.263-2.217,0.263c-0.836,0-1.564-0.093-2.178-0.289
	c-0.616-0.181-1.117-0.492-1.485-0.913c-0.369-0.417-0.604-0.974-0.701-1.652h10.274V189.567z M-18.614,195.494h5.299v-8.009h7.665
	v-3.763h-7.665v-4.358h8.005v-3.763h-13.305V195.494z M-40.445,186.658c0.039-0.574,0.162-1.094,0.38-1.563
	c0.214-0.465,0.522-0.832,0.93-1.117c0.41-0.278,0.924-0.413,1.539-0.413c0.684,0,1.233,0.135,1.655,0.413
	c0.417,0.285,0.721,0.652,0.917,1.117c0.189,0.469,0.285,0.993,0.279,1.563H-40.445z M-30.124,189.567v-0.938
	c0-0.887-0.085-1.751-0.253-2.56c-0.172-0.821-0.436-1.576-0.808-2.275c-0.362-0.7-0.838-1.308-1.421-1.826
	c-0.582-0.525-1.289-0.93-2.122-1.215c-0.828-0.295-1.791-0.437-2.89-0.437c-1.159,0-2.222,0.169-3.19,0.514
	c-0.963,0.35-1.805,0.853-2.516,1.52c-0.711,0.667-1.263,1.478-1.652,2.44c-0.385,0.956-0.586,2.046-0.592,3.281
	c0,1.225,0.229,2.316,0.661,3.279c0.432,0.964,1.042,1.771,1.818,2.449c0.779,0.668,1.692,1.182,2.739,1.52
	c1.047,0.352,2.19,0.526,3.415,0.531c0.957,0,1.897-0.07,2.817-0.226c0.922-0.151,1.793-0.382,2.625-0.714v-3.615
	c-0.774,0.399-1.545,0.699-2.317,0.874c-0.78,0.182-1.514,0.263-2.218,0.263c-0.834,0-1.561-0.093-2.179-0.289
	c-0.615-0.181-1.106-0.492-1.482-0.913c-0.366-0.417-0.602-0.974-0.7-1.652h10.263V189.567z M-59.309,187.915
	c0-0.491,0.068-0.962,0.208-1.403c0.134-0.438,0.336-0.826,0.593-1.172c0.271-0.344,0.594-0.607,0.982-0.803
	c0.386-0.192,0.829-0.294,1.326-0.294c0.631,0,1.18,0.168,1.646,0.502c0.465,0.333,0.828,0.781,1.091,1.367
	c0.265,0.579,0.393,1.246,0.393,1.995c0,0.728-0.151,1.378-0.432,1.953c-0.278,0.568-0.661,1.016-1.132,1.338
	c-0.47,0.325-0.989,0.5-1.572,0.505c-0.645-0.005-1.203-0.18-1.667-0.51c-0.464-0.339-0.818-0.798-1.063-1.398
	C-59.181,189.414-59.309,188.715-59.309,187.915z M-47.936,174.126h-5.156v8.433h-0.058c-0.436-0.569-0.923-1.018-1.448-1.347
	c-0.528-0.323-1.099-0.563-1.709-0.699c-0.61-0.136-1.26-0.207-1.943-0.196c-0.817,0-1.568,0.136-2.234,0.426
	c-0.669,0.273-1.261,0.662-1.769,1.154c-0.508,0.498-0.945,1.055-1.288,1.701c-0.347,0.629-0.604,1.306-0.791,2.021
	c-0.171,0.724-0.262,1.456-0.262,2.188c0,1.104,0.145,2.143,0.437,3.106c0.295,0.968,0.728,1.814,1.293,2.56
	c0.578,0.738,1.282,1.312,2.126,1.736c0.84,0.416,1.816,0.626,2.918,0.637c0.801-0.005,1.533-0.143,2.223-0.405
	c0.688-0.272,1.288-0.622,1.786-1.071c0.5-0.453,0.869-0.963,1.088-1.515h0.055v2.651h4.732V174.126z M-77.23,190.792
	c0.005-0.469,0.145-0.848,0.418-1.136c0.276-0.296,0.646-0.506,1.11-0.628c0.464-0.132,0.989-0.198,1.577-0.193
	c0.389,0,0.763,0.011,1.126,0.033c0.364,0.016,0.711,0.043,1.042,0.054c0,0.432-0.08,0.858-0.225,1.28
	c-0.139,0.403-0.353,0.787-0.631,1.116c-0.277,0.344-0.607,0.603-0.998,0.805c-0.391,0.196-0.829,0.298-1.311,0.298
	c-0.404,0-0.767-0.065-1.074-0.186c-0.32-0.131-0.565-0.314-0.751-0.558C-77.135,191.433-77.226,191.137-77.23,190.792z
	 M-66.891,195.494c-0.106-0.583-0.184-1.169-0.23-1.753c-0.038-0.585-0.055-1.172-0.055-1.756v-5.523
	c-0.004-1.127-0.202-2.084-0.571-2.875c-0.375-0.787-0.892-1.423-1.545-1.904c-0.65-0.479-1.399-0.831-2.252-1.056
	c-0.845-0.214-1.747-0.321-2.703-0.321c-1.091,0-2.128,0.082-3.101,0.251c-0.981,0.164-1.922,0.428-2.83,0.805l0.09,3.477
	c0.71-0.394,1.479-0.679,2.281-0.853c0.806-0.169,1.618-0.263,2.453-0.257c0.626-0.006,1.191,0.065,1.694,0.213
	c0.512,0.147,0.914,0.41,1.217,0.791c0.301,0.368,0.464,0.887,0.476,1.56c-0.336-0.061-0.711-0.104-1.131-0.135
	c-0.419-0.034-0.84-0.068-1.26-0.068c-0.465,0-0.968,0.023-1.518,0.068c-0.547,0.042-1.112,0.117-1.679,0.25
	c-0.576,0.114-1.126,0.296-1.656,0.524c-0.533,0.236-1.008,0.537-1.429,0.908c-0.419,0.371-0.756,0.827-0.996,1.378
	c-0.247,0.552-0.375,1.203-0.381,1.951c0,0.804,0.156,1.505,0.455,2.09c0.301,0.586,0.705,1.066,1.22,1.455
	c0.514,0.389,1.114,0.667,1.769,0.854c0.667,0.181,1.366,0.278,2.105,0.278c0.699,0,1.339-0.098,1.896-0.284
	c0.566-0.191,1.078-0.481,1.542-0.875c0.459-0.395,0.878-0.903,1.265-1.521h0.056c0.005,0.385,0.016,0.778,0.043,1.16
	c0.03,0.383,0.052,0.781,0.069,1.181h4.708V195.494z M-95.754,187.915c0-0.491,0.066-0.962,0.208-1.403
	c0.134-0.438,0.336-0.826,0.598-1.172c0.263-0.344,0.594-0.607,0.974-0.803c0.386-0.192,0.828-0.294,1.33-0.294
	c0.631,0,1.181,0.168,1.645,0.502c0.466,0.333,0.829,0.781,1.091,1.367c0.257,0.579,0.385,1.246,0.391,1.995
	c-0.005,0.728-0.15,1.378-0.429,1.953c-0.282,0.568-0.662,1.016-1.132,1.338c-0.469,0.325-0.988,0.5-1.571,0.505
	c-0.646-0.005-1.206-0.18-1.67-0.51c-0.459-0.339-0.818-0.798-1.059-1.398C-95.625,189.414-95.754,188.715-95.754,187.915z
	 M-84.382,174.126h-5.157v8.433h-0.055c-0.438-0.569-0.919-1.018-1.452-1.347c-0.525-0.323-1.096-0.563-1.705-0.699
	c-0.613-0.136-1.261-0.207-1.95-0.196c-0.818,0-1.566,0.136-2.233,0.426c-0.672,0.273-1.261,0.662-1.769,1.154
	c-0.518,0.498-0.949,1.055-1.294,1.701c-0.346,0.629-0.606,1.306-0.789,2.021c-0.175,0.724-0.266,1.456-0.266,2.188
	c0,1.104,0.148,2.143,0.438,3.106c0.298,0.968,0.728,1.814,1.293,2.56c0.578,0.738,1.283,1.312,2.13,1.736
	c0.839,0.416,1.813,0.626,2.917,0.637c0.799-0.005,1.539-0.143,2.229-0.405c0.689-0.272,1.282-0.622,1.785-1.071
	c0.498-0.453,0.861-0.963,1.086-1.515h0.057v2.651h4.73v-21.38H-84.382z M-104.131,174.465h-5.128v3.762h5.128V174.465z
	 M-109.26,195.494h5.128v-14.845h-5.128V195.494z M-124.674,195.122c0.498,0.165,1.015,0.296,1.55,0.395
	c0.539,0.115,1.121,0.187,1.747,0.241c0.623,0.054,1.323,0.083,2.089,0.083c0.678,0,1.35-0.045,2.009-0.138
	c0.661-0.095,1.287-0.252,1.875-0.46c0.59-0.23,1.115-0.529,1.569-0.905c0.454-0.375,0.813-0.851,1.069-1.412
	c0.258-0.58,0.391-1.26,0.397-2.04c-0.006-0.805-0.145-1.472-0.418-1.997c-0.273-0.529-0.64-0.956-1.091-1.277
	c-0.454-0.329-0.948-0.586-1.491-0.787c-0.543-0.186-1.082-0.345-1.624-0.461c-0.544-0.124-1.042-0.251-1.495-0.372
	c-0.454-0.12-0.818-0.272-1.092-0.465c-0.275-0.187-0.415-0.442-0.426-0.771c0.006-0.208,0.079-0.371,0.213-0.513
	c0.14-0.126,0.326-0.231,0.555-0.313c0.235-0.082,0.481-0.127,0.766-0.159c0.276-0.032,0.554-0.043,0.833-0.043
	c0.432,0,0.886,0.043,1.361,0.12c0.476,0.071,0.941,0.187,1.394,0.327c0.46,0.143,0.867,0.341,1.231,0.557l0.404-3.563
	c-0.833-0.323-1.684-0.549-2.564-0.673c-0.88-0.12-1.763-0.181-2.655-0.181c-0.599,0-1.197,0.061-1.796,0.169
	c-0.599,0.115-1.165,0.301-1.708,0.541c-0.542,0.242-1.025,0.553-1.449,0.93c-0.42,0.377-0.757,0.832-0.998,1.354
	c-0.245,0.538-0.369,1.134-0.375,1.816c0.005,0.766,0.14,1.391,0.402,1.898c0.266,0.496,0.613,0.907,1.047,1.22
	c0.431,0.311,0.908,0.563,1.425,0.743c0.519,0.186,1.033,0.351,1.549,0.47c0.515,0.132,0.99,0.268,1.423,0.406
	c0.432,0.131,0.779,0.311,1.041,0.523c0.263,0.208,0.397,0.491,0.402,0.837c-0.005,0.344-0.104,0.597-0.301,0.771
	c-0.197,0.17-0.454,0.291-0.768,0.351c-0.312,0.055-0.648,0.087-1.007,0.075c-0.622,0-1.222-0.049-1.804-0.146
	c-0.583-0.104-1.129-0.219-1.646-0.376c-0.509-0.154-0.963-0.318-1.368-0.494L-124.674,195.122z M-125.901,180.479
	c-0.263-0.044-0.536-0.086-0.834-0.119c-0.295-0.022-0.599-0.044-0.9-0.044c-0.735,0-1.383,0.119-1.928,0.372
	c-0.555,0.252-1.025,0.601-1.427,1.061c-0.398,0.459-0.746,1.006-1.036,1.63h-0.058v-2.729h-4.669v14.845h5.129v-6.265
	c0-0.974,0.148-1.806,0.438-2.499c0.287-0.688,0.705-1.227,1.266-1.592c0.561-0.36,1.237-0.553,2.031-0.557
	c0.304-0.006,0.596,0.004,0.881,0.021c0.29,0.017,0.577,0.063,0.86,0.152L-125.901,180.479z M-149.753,186.658
	c0.039-0.574,0.162-1.094,0.38-1.563c0.214-0.465,0.523-0.832,0.93-1.117c0.41-0.278,0.923-0.413,1.539-0.413
	c0.678,0,1.233,0.135,1.654,0.413c0.418,0.285,0.722,0.652,0.916,1.117c0.191,0.469,0.287,0.993,0.281,1.563H-149.753z
	 M-139.44,189.567v-0.938c0-0.887-0.083-1.751-0.251-2.56c-0.167-0.821-0.435-1.576-0.802-2.275c-0.363-0.7-0.838-1.308-1.421-1.826
	c-0.582-0.525-1.292-0.93-2.122-1.215c-0.828-0.295-1.796-0.437-2.896-0.437c-1.159,0-2.222,0.169-3.19,0.514
	c-0.962,0.35-1.805,0.853-2.51,1.52c-0.711,0.667-1.267,1.478-1.652,2.44c-0.386,0.956-0.588,2.046-0.593,3.281
	c0,1.225,0.229,2.316,0.661,3.279c0.429,0.964,1.042,1.771,1.818,2.449c0.785,0.668,1.693,1.182,2.739,1.52
	c1.047,0.352,2.19,0.526,3.416,0.531c0.956,0,1.896-0.07,2.815-0.226c0.924-0.151,1.799-0.382,2.627-0.714v-3.615
	c-0.773,0.399-1.553,0.699-2.318,0.874c-0.773,0.182-1.513,0.263-2.217,0.263c-0.834,0-1.564-0.093-2.18-0.289
	c-0.615-0.181-1.112-0.492-1.484-0.913c-0.364-0.417-0.598-0.974-0.7-1.652h10.258V189.567z M-167.391,195.494h5.84l5.499-14.845
	h-5.102l-3.105,10.57h-0.058l-3.078-10.57h-5.498L-167.391,195.494z M-175.371,174.465h-5.128v3.762h5.128V174.465z M-180.5,195.494
	h5.128v-14.845h-5.128V195.494z M-200.108,195.494h5.134v-6.265c0-1.592,0.271-2.768,0.807-3.521
	c0.533-0.756,1.334-1.132,2.387-1.126c0.47-0.006,0.877,0.107,1.235,0.348c0.354,0.236,0.635,0.63,0.823,1.183
	c0.203,0.546,0.303,1.28,0.303,2.208v7.174h5.135v-9.263c0-0.774-0.106-1.519-0.32-2.22c-0.212-0.701-0.546-1.334-0.995-1.897
	c-0.455-0.551-1.041-0.989-1.758-1.306c-0.718-0.329-1.585-0.492-2.594-0.492c-0.782,0-1.518,0.103-2.212,0.317
	c-0.695,0.224-1.316,0.551-1.865,1.006c-0.542,0.459-0.99,1.038-1.337,1.749h-0.055v-2.729h-4.677v14.834H-200.108z
	 M-203.272,175.612h-5.295v11.451c0.005,0.655-0.046,1.285-0.15,1.858c-0.101,0.586-0.287,1.1-0.545,1.543
	c-0.25,0.448-0.598,0.798-1.047,1.051c-0.442,0.261-1.004,0.388-1.681,0.394c-0.669-0.006-1.225-0.133-1.673-0.394
	c-0.443-0.253-0.795-0.597-1.053-1.051c-0.251-0.443-0.432-0.957-0.544-1.543c-0.104-0.579-0.156-1.203-0.15-1.858v-11.451h-5.295
	v12.331c0.005,1.363,0.218,2.537,0.631,3.538c0.422,0.984,1.014,1.804,1.786,2.45c0.773,0.645,1.687,1.115,2.75,1.438
	c1.07,0.312,2.25,0.471,3.549,0.471c1.301,0,2.488-0.159,3.557-0.471c1.063-0.323,1.981-0.794,2.756-1.438
	c0.771-0.646,1.364-1.466,1.78-2.45c0.419-1.001,0.626-2.175,0.626-3.538V175.612z M-163.735,38.086h-20.806v29.336
	c0,7.076-2.762,10.613-8.276,10.613c-4.54,0-6.81-3.05-6.81-9.152V38.086h-20.594v30.277c0,6.862,0.695,11.68,2.084,14.457
	c2.843,5.688,8.253,8.524,16.226,8.524c6.936,0,12.727-2.946,17.375-8.841v7.595h20.806V38.086H-163.735z M-103.19,59.828
	c0-6.726-0.662-11.44-1.982-14.146c-2.849-5.89-8.309-8.837-16.382-8.837c-7.021,0-12.87,2.947-17.528,8.837v-7.592h-20.598v52.019
	h20.598V60.872c0-7.219,2.777-10.821,8.333-10.821c4.643,0,6.967,3.091,6.967,9.258v30.795h20.592V59.828z M-99.024,34.232h20.599
	V21.529h-20.599V34.232z M-78.425,38.086h-20.599v52.018h20.599V38.54V38.086z M13.846,74.289c-0.622,1.391-1.611,2.495-2.963,3.337
	c-1.354,0.826-2.719,1.248-4.108,1.248c-1.389,0-2.638-0.607-3.746-1.822c-1.109-1.219-1.665-2.618-1.665-4.21
	c0-3.882,3.086-6.661,9.257-8.322c2.083-0.56,3.537-0.94,4.367-1.149v4.687C14.989,70.474,14.608,72.552,13.846,74.289z
	 M-37.859,74.203c-1.662,4.293-4.199,6.43-7.592,6.43c-2.564,0-4.631-1.503-6.187-4.512c-1.561-3.006-2.34-7.036-2.34-12.083
	c0-5.048,0.812-9.017,2.446-11.926c1.629-2.897,3.862-4.353,6.708-4.353c2.705,0,4.837,1.41,6.398,4.253
	c1.559,2.832,2.335,6.699,2.335,11.615C-36.089,67.642-36.677,71.162-37.859,74.203z M35.064,73.771V61.703
	c0-8.05-1.213-13.66-3.636-16.853c-4.086-5.343-10.921-8.017-20.495-8.017c-8.533,0-16.474,2.396-23.824,7.181l5.807,9.257
	c4.423-3.681,8.708-5.512,12.851-5.512c4.216,0,7.292,1.729,9.222,5.184l-8.4,1.766c-7.604,1.592-13.169,3.768-16.691,6.535
	c-1.764,1.394-3.213,2.908-4.345,4.526c0.065-0.917,0.107-1.869,0.107-2.832c0-7.765-2.1-14.058-6.294-18.876
	c-4.199-4.817-9.658-7.229-16.384-7.229c-3.538,0-6.573,0.602-9.099,1.815c-2.534,1.214-5.151,3.347-7.854,6.398v-6.967h-20.18
	v65.786h20.18V83.134c2.633,3.056,5.061,5.182,7.278,6.402c2.217,1.212,4.822,1.814,7.805,1.814c6.938,0,12.763-2.733,17.477-8.217
	c1.619-1.878,2.958-3.9,4.016-6.065c0.322,3.652,1.863,6.867,4.618,9.613c3.124,3.116,6.763,4.669,10.925,4.669
	c5.895,0,11.304-2.318,16.226-6.965c0,2.075,0.247,3.99,0.729,5.718H36.95C35.697,86.15,35.064,80.699,35.064,73.771z
	 M129.114,59.521c0-7.005-0.798-11.898-2.396-14.671c-3.062-5.343-8.408-8.017-16.043-8.017c-7.578,0-13.51,2.952-17.824,8.849
	c-2.638-5.896-7.601-8.849-14.895-8.849c-7.782,0-13.792,2.952-18.03,8.849v-7.597H39.329v52.018h20.598V60.588
	c0-2.915,0.214-4.97,0.636-6.151c1.045-2.915,3.313-4.386,6.809-4.386c2.656,0,4.517,1.044,5.554,3.135
	c0.569,1.113,0.842,3.646,0.842,7.61v29.308h20.599V60.561c0-2.636,0.246-4.609,0.738-5.928c1.125-3.056,3.379-4.582,6.754-4.582
	c2.685,0,4.574,1.044,5.702,3.123c0.635,1.181,0.952,3.366,0.952,6.561v30.375h20.603V59.521z M221.29,74.289
	c-0.629,1.391-1.619,2.495-2.97,3.337c-1.346,0.826-2.725,1.248-4.1,1.248c-1.391,0-2.638-0.607-3.751-1.822
	c-1.106-1.219-1.664-2.618-1.664-4.21c0-3.882,3.084-6.661,9.252-8.322c2.084-0.56,3.539-0.94,4.374-1.149v4.687
	C222.431,70.474,222.042,72.552,221.29,74.289z M169.578,74.203c-1.663,4.293-4.199,6.43-7.59,6.43
	c-2.569,0-4.632-1.503-6.188-4.512c-1.554-3.006-2.342-7.036-2.342-12.083c0-5.048,0.82-9.017,2.45-11.926
	c1.628-2.897,3.861-4.353,6.704-4.353c2.708,0,4.839,1.41,6.407,4.253c1.554,2.832,2.342,6.699,2.342,11.615
	C171.356,67.642,170.76,71.162,169.578,74.203z M242.51,73.771V61.703c0-8.05-1.226-13.66-3.643-16.853
	c-4.088-5.343-10.925-8.017-20.492-8.017c-8.531,0-16.47,2.396-23.82,7.181l5.798,9.257c4.423-3.681,8.704-5.512,12.854-5.512
	c4.215,0,7.288,1.729,9.224,5.184l-8.398,1.766c-7.61,1.592-13.178,3.768-16.7,6.535c-1.759,1.394-3.214,2.908-4.34,4.526
	c0.07-0.917,0.107-1.869,0.107-2.832c0-7.765-2.099-14.058-6.299-18.876c-4.192-4.817-9.656-7.229-16.382-7.229
	c-3.542,0-6.572,0.602-9.1,1.815c-2.534,1.214-5.149,3.347-7.856,6.398v-6.967h-20.182v65.786h20.182V83.134
	c2.641,3.056,5.063,5.182,7.289,6.402c2.214,1.212,4.812,1.814,7.803,1.814c6.928,0,12.757-2.733,17.476-8.217
	c1.612-1.878,2.947-3.9,4.019-6.07c0.329,3.657,1.859,6.872,4.615,9.618c3.117,3.116,6.764,4.669,10.925,4.669
	c5.891,0,11.303-2.318,16.219-6.965c0,2.075,0.246,3.99,0.728,5.718h21.851C243.124,86.15,242.51,80.699,242.51,73.771z"/>
</svg>
