<?xml version="1.0" encoding="utf-8"?>
<!-- Generator: Adobe Illustrator 15.1.0, SVG Export Plug-In . SVG Version: 6.00 Build 0)  -->
<!DOCTYPE svg PUBLIC "-//W3C//DTD SVG 1.1//EN" "http://www.w3.org/Graphics/SVG/1.1/DTD/svg11.dtd">
<svg version="1.1" id="Camada_1" xmlns="http://www.w3.org/2000/svg" xmlns:xlink="http://www.w3.org/1999/xlink" x="0px" y="0px"
	 width="832.893px" height="177.148px" viewBox="0 0 832.893 177.148" enable-background="new 0 0 832.893 177.148"
	 xml:space="preserve">
<rect x="0" y="2" fill="#FFFFFF" width="830.893" height="175.148"/>
<path fill="#009540" d="M143.313,55.168c1.01-2.231,1.573-4.708,1.573-7.317c0-9.812-7.954-17.765-17.767-17.765
	c-9.812,0-17.767,7.954-17.767,17.765c0,2.614,0.564,5.097,1.579,7.33c-8.857,1.006-15.739,8.524-15.739,17.651
	c0,9.812,7.954,17.765,17.767,17.765c3.821,0,7.361-1.206,10.261-3.26h7.924c2.897,2.054,6.438,3.26,10.259,3.26
	c9.813,0,17.767-7.954,17.767-17.765C159.17,63.666,152.228,56.121,143.313,55.168 M56.215,140.811
	c9.713-3.078,43.387-10.421,125.013-0.478c92.261,11.239,122.042,0.434,125.778-1.144v3.969
	c-7.914,2.764-40.844,11.272-126.216,0.874c-85.784-10.451-117.537-1.844-124.575,0.684V140.811L56.215,140.811z"/>
<path d="M764.915,117.97c0.006-0.45,0.141-0.81,0.396-1.085c0.262-0.274,0.612-0.472,1.055-0.594c0.44-0.126,0.94-0.189,1.493-0.186
	c0.364,0,0.721,0.015,1.067,0.031c0.347,0.02,0.675,0.036,0.984,0.05c0,0.414-0.071,0.819-0.211,1.215
	c-0.136,0.393-0.338,0.747-0.599,1.063c-0.263,0.32-0.577,0.571-0.945,0.756c-0.369,0.189-0.783,0.284-1.242,0.289
	c-0.383,0-0.725-0.064-1.021-0.186c-0.302-0.121-0.535-0.292-0.711-0.521S764.921,118.294,764.915,117.97 M774.719,122.426
	c-0.104-0.554-0.176-1.107-0.217-1.66c-0.035-0.555-0.055-1.106-0.055-1.662v-5.237c-0.004-1.072-0.188-1.978-0.54-2.725
	c-0.354-0.747-0.842-1.346-1.463-1.805c-0.616-0.455-1.328-0.788-2.134-0.999c-0.801-0.208-1.655-0.312-2.561-0.306
	c-1.035-0.006-2.018,0.074-2.939,0.232c-0.927,0.162-1.818,0.414-2.679,0.767l0.082,3.295c0.68-0.374,1.398-0.646,2.159-0.812
	c0.762-0.167,1.534-0.248,2.322-0.244c0.594-0.004,1.13,0.063,1.606,0.203c0.481,0.146,0.864,0.393,1.152,0.747
	c0.287,0.353,0.44,0.847,0.454,1.481c-0.314-0.056-0.675-0.101-1.071-0.137c-0.399-0.035-0.796-0.054-1.195-0.054
	c-0.438-0.005-0.919,0.019-1.441,0.059c-0.518,0.04-1.053,0.117-1.594,0.233c-0.544,0.114-1.065,0.284-1.57,0.5
	c-0.504,0.221-0.954,0.509-1.354,0.86c-0.396,0.354-0.716,0.787-0.945,1.31c-0.233,0.519-0.354,1.135-0.359,1.846
	c0.005,0.762,0.147,1.423,0.433,1.98c0.283,0.558,0.666,1.017,1.156,1.377c0.489,0.364,1.054,0.63,1.679,0.811
	c0.631,0.177,1.297,0.262,1.999,0.262c0.661,0,1.265-0.09,1.796-0.271c0.535-0.181,1.021-0.455,1.458-0.829
	c0.438-0.378,0.837-0.854,1.202-1.439h0.054c0.005,0.365,0.02,0.729,0.045,1.099c0.027,0.365,0.051,0.738,0.063,1.116
	L774.719,122.426L774.719,122.426z M753.681,115.243c0,0.752-0.122,1.414-0.355,1.977c-0.232,0.566-0.57,1.008-1.009,1.323
	c-0.436,0.313-0.963,0.477-1.58,0.479c-0.544-0.004-1.044-0.166-1.488-0.477c-0.445-0.306-0.807-0.734-1.071-1.271
	c-0.267-0.54-0.405-1.155-0.409-1.846c0.004-0.706,0.13-1.336,0.373-1.89c0.248-0.549,0.59-0.981,1.035-1.303
	c0.445-0.313,0.964-0.477,1.562-0.48c0.475,0.005,0.893,0.1,1.256,0.284c0.369,0.185,0.677,0.437,0.929,0.761
	c0.247,0.319,0.437,0.693,0.566,1.107C753.617,114.33,753.681,114.774,753.681,115.243z M742.905,128.097h4.861v-7.643h0.054
	c0.312,0.554,0.707,1.004,1.185,1.342c0.478,0.333,0.999,0.58,1.565,0.729c0.563,0.153,1.136,0.23,1.706,0.227
	c1.049-0.009,1.973-0.207,2.772-0.604c0.797-0.399,1.468-0.944,2.012-1.646c0.54-0.698,0.95-1.504,1.229-2.422
	c0.274-0.914,0.414-1.896,0.414-2.944c0-0.684-0.086-1.368-0.253-2.043c-0.171-0.68-0.418-1.323-0.747-1.926
	c-0.327-0.608-0.737-1.145-1.224-1.611c-0.486-0.474-1.044-0.843-1.679-1.112c-0.635-0.267-1.342-0.404-2.12-0.408
	c-0.743,0-1.454,0.098-2.124,0.306c-0.676,0.202-1.279,0.513-1.819,0.937c-0.535,0.424-0.968,0.963-1.297,1.62h-0.054v-2.539h-4.482
	V128.097z M716.008,122.426h4.86v-5.941c0.004-1.508,0.247-2.618,0.729-3.335c0.481-0.716,1.157-1.07,2.024-1.065
	c0.461,0.004,0.829,0.126,1.116,0.364c0.289,0.241,0.496,0.57,0.631,0.984c0.136,0.419,0.198,0.896,0.198,1.433v7.562h4.86v-5.941
	c0.01-1.508,0.253-2.618,0.729-3.335c0.48-0.716,1.156-1.07,2.025-1.065c0.458,0.004,0.832,0.126,1.115,0.364
	c0.289,0.241,0.499,0.57,0.631,0.984c0.135,0.419,0.202,0.896,0.197,1.433v7.562h4.86v-8.291c0.005-0.954-0.063-1.809-0.207-2.561
	c-0.144-0.752-0.396-1.393-0.757-1.918c-0.363-0.526-0.867-0.933-1.521-1.206c-0.648-0.279-1.478-0.418-2.485-0.418
	c-0.67,0-1.313,0.09-1.931,0.277c-0.616,0.189-1.188,0.481-1.71,0.883c-0.521,0.396-0.973,0.909-1.354,1.539
	c-0.257-0.611-0.599-1.115-1.031-1.517c-0.437-0.401-0.937-0.698-1.508-0.892c-0.572-0.198-1.192-0.292-1.863-0.292
	c-0.742,0-1.439,0.098-2.098,0.306c-0.657,0.207-1.247,0.521-1.765,0.954c-0.519,0.432-0.94,0.979-1.27,1.656h-0.055v-2.594h-4.429
	v14.07H716.008z M703.368,117.97c0.004-0.45,0.141-0.81,0.396-1.085c0.262-0.274,0.611-0.472,1.054-0.594
	c0.441-0.126,0.94-0.189,1.493-0.186c0.365,0,0.721,0.015,1.068,0.031c0.346,0.02,0.674,0.036,0.984,0.05
	c0,0.414-0.072,0.819-0.211,1.215c-0.136,0.393-0.338,0.747-0.6,1.063c-0.262,0.32-0.576,0.571-0.945,0.756
	c-0.369,0.189-0.782,0.284-1.242,0.289c-0.383,0-0.725-0.064-1.021-0.186c-0.302-0.121-0.536-0.292-0.712-0.521
	S703.372,118.294,703.368,117.97z M713.172,122.426c-0.104-0.554-0.176-1.107-0.217-1.66c-0.035-0.555-0.055-1.106-0.055-1.662
	v-5.237c-0.004-1.072-0.188-1.978-0.54-2.725c-0.354-0.747-0.841-1.346-1.462-1.805c-0.617-0.455-1.328-0.788-2.134-0.999
	c-0.801-0.208-1.656-0.312-2.561-0.306c-1.035-0.006-2.018,0.074-2.939,0.232c-0.928,0.162-1.818,0.414-2.679,0.767l0.081,3.295
	c0.68-0.374,1.399-0.646,2.16-0.812c0.761-0.167,1.534-0.248,2.322-0.244c0.595-0.004,1.13,0.063,1.606,0.203
	c0.481,0.146,0.864,0.393,1.152,0.747c0.287,0.353,0.44,0.847,0.454,1.481c-0.314-0.056-0.675-0.101-1.07-0.137
	c-0.401-0.035-0.797-0.054-1.197-0.054c-0.438-0.005-0.918,0.019-1.44,0.059c-0.518,0.04-1.053,0.117-1.594,0.233
	c-0.545,0.114-1.065,0.284-1.57,0.5c-0.504,0.221-0.954,0.509-1.354,0.86c-0.396,0.354-0.716,0.787-0.945,1.31
	c-0.233,0.519-0.355,1.135-0.359,1.846c0.004,0.762,0.147,1.423,0.432,1.98c0.283,0.558,0.666,1.017,1.157,1.377
	c0.489,0.364,1.053,0.63,1.679,0.811c0.631,0.177,1.296,0.262,1.998,0.262c0.662,0,1.266-0.09,1.797-0.271
	c0.535-0.181,1.021-0.455,1.458-0.829c0.438-0.378,0.837-0.854,1.201-1.439h0.055c0.004,0.365,0.019,0.729,0.044,1.099
	c0.028,0.365,0.052,0.738,0.063,1.116L713.172,122.426L713.172,122.426z M688.003,107.14h1.296c0.58-0.004,1.106,0.072,1.575,0.23
	c0.463,0.162,0.837,0.428,1.111,0.797c0.273,0.373,0.413,0.877,0.419,1.512c-0.006,0.652-0.146,1.171-0.419,1.548
	c-0.274,0.379-0.648,0.649-1.111,0.813c-0.469,0.161-0.995,0.236-1.575,0.232h-1.296V107.14z M682.978,122.426h5.024v-6.59h1.942
	c1.571-0.004,2.917-0.247,4.029-0.729c1.111-0.48,1.967-1.175,2.557-2.08c0.593-0.903,0.892-1.992,0.896-3.268
	c0.01-2.11-0.685-3.673-2.07-4.681c-1.386-1.009-3.516-1.514-6.382-1.503h-5.996V122.426z M664.21,119.347
	c-0.56-0.004-1.039-0.112-1.44-0.324c-0.4-0.211-0.725-0.499-0.981-0.867c-0.252-0.364-0.439-0.783-0.558-1.256
	c-0.121-0.474-0.18-0.973-0.18-1.494c0-0.53,0.059-1.035,0.18-1.509c0.117-0.477,0.306-0.899,0.558-1.27
	c0.258-0.368,0.581-0.657,0.981-0.869c0.401-0.211,0.882-0.318,1.44-0.323c0.559,0.005,1.038,0.112,1.44,0.323
	c0.399,0.212,0.724,0.501,0.98,0.869c0.252,0.369,0.44,0.793,0.559,1.27c0.121,0.474,0.179,0.979,0.179,1.509
	c0,0.521-0.058,1.021-0.179,1.494c-0.117,0.473-0.307,0.892-0.559,1.256c-0.258,0.368-0.581,0.656-0.98,0.867
	C665.248,119.235,664.768,119.343,664.21,119.347z M664.21,122.75c1.166,0,2.245-0.166,3.24-0.495
	c0.99-0.329,1.854-0.806,2.594-1.438c0.736-0.629,1.313-1.398,1.724-2.308c0.409-0.905,0.62-1.945,0.626-3.106
	c-0.006-1.17-0.217-2.211-0.626-3.123c-0.409-0.914-0.986-1.685-1.724-2.313c-0.738-0.635-1.604-1.112-2.594-1.441
	c-0.995-0.327-2.074-0.493-3.24-0.493s-2.246,0.166-3.236,0.493c-0.994,0.329-1.859,0.808-2.598,1.441
	c-0.737,0.629-1.313,1.398-1.724,2.313c-0.41,0.912-0.622,1.953-0.626,3.123c0.004,1.161,0.216,2.201,0.626,3.106
	c0.409,0.908,0.985,1.679,1.724,2.308c0.737,0.632,1.604,1.107,2.598,1.438C661.964,122.584,663.044,122.75,664.21,122.75z
	 M643.01,115.243c0-0.47,0.063-0.913,0.192-1.332c0.132-0.414,0.319-0.788,0.566-1.107c0.252-0.324,0.563-0.576,0.928-0.761
	c0.365-0.186,0.782-0.279,1.256-0.284c0.6,0.005,1.12,0.167,1.563,0.478c0.444,0.315,0.788,0.743,1.035,1.297
	c0.248,0.55,0.37,1.185,0.374,1.898c-0.004,0.689-0.145,1.306-0.409,1.846c-0.267,0.535-0.627,0.965-1.072,1.271
	c-0.445,0.311-0.94,0.473-1.489,0.477c-0.612-0.004-1.139-0.166-1.58-0.479c-0.437-0.315-0.773-0.757-1.009-1.323
	C643.132,116.657,643.01,115.995,643.01,115.243z M653.784,102.171h-4.888v7.994h-0.055c-0.413-0.535-0.872-0.964-1.372-1.273
	c-0.499-0.311-1.04-0.536-1.62-0.666c-0.576-0.136-1.193-0.198-1.842-0.192c-0.778,0.004-1.485,0.139-2.119,0.403
	c-0.635,0.267-1.193,0.636-1.681,1.1c-0.484,0.468-0.896,0.999-1.224,1.605c-0.328,0.604-0.576,1.247-0.747,1.927
	c-0.166,0.681-0.253,1.368-0.253,2.065c0,1.05,0.14,2.03,0.415,2.944c0.278,0.918,0.688,1.724,1.229,2.422
	c0.545,0.701,1.215,1.246,2.017,1.646c0.796,0.396,1.719,0.596,2.769,0.604c0.757-0.005,1.458-0.135,2.11-0.389
	c0.653-0.252,1.22-0.59,1.692-1.017c0.473-0.428,0.818-0.905,1.03-1.431h0.055v2.511h4.481L653.784,102.171L653.784,102.171z
	 M621.944,122.426h4.861v-20.255h-4.861V122.426z M608.738,117.97c0.005-0.45,0.142-0.81,0.396-1.085
	c0.263-0.274,0.612-0.472,1.055-0.594c0.44-0.126,0.939-0.189,1.493-0.186c0.365,0,0.721,0.015,1.067,0.031
	c0.346,0.02,0.675,0.036,0.984,0.05c0,0.414-0.071,0.819-0.211,1.215c-0.136,0.393-0.338,0.747-0.599,1.063
	c-0.263,0.32-0.577,0.571-0.946,0.756c-0.368,0.189-0.782,0.284-1.241,0.289c-0.383,0-0.725-0.064-1.021-0.186
	c-0.302-0.121-0.535-0.292-0.711-0.521C608.828,118.573,608.743,118.294,608.738,117.97z M618.542,122.426
	c-0.104-0.554-0.176-1.107-0.216-1.66c-0.036-0.555-0.055-1.106-0.055-1.662v-5.237c-0.004-1.072-0.188-1.978-0.54-2.725
	c-0.354-0.747-0.842-1.346-1.463-1.805c-0.616-0.455-1.327-0.788-2.133-0.999c-0.801-0.208-1.657-0.312-2.562-0.306
	c-1.036-0.006-2.018,0.074-2.939,0.232c-0.927,0.162-1.818,0.414-2.679,0.767l0.081,3.295c0.681-0.374,1.399-0.646,2.161-0.812
	c0.761-0.167,1.534-0.248,2.321-0.244c0.595-0.004,1.13,0.063,1.607,0.203c0.481,0.146,0.863,0.393,1.151,0.747
	c0.288,0.353,0.44,0.847,0.454,1.481c-0.313-0.056-0.675-0.101-1.071-0.137c-0.399-0.035-0.796-0.054-1.196-0.054
	c-0.437-0.005-0.917,0.019-1.439,0.059c-0.519,0.04-1.054,0.117-1.594,0.233c-0.545,0.114-1.066,0.284-1.57,0.5
	c-0.505,0.221-0.954,0.509-1.354,0.86c-0.396,0.354-0.717,0.787-0.945,1.31c-0.234,0.519-0.355,1.135-0.36,1.846
	c0.005,0.762,0.148,1.423,0.434,1.98c0.282,0.558,0.666,1.017,1.155,1.377c0.491,0.364,1.054,0.63,1.68,0.811
	c0.631,0.177,1.296,0.262,1.999,0.262c0.661,0,1.265-0.09,1.796-0.271c0.535-0.181,1.021-0.455,1.458-0.829
	c0.438-0.378,0.837-0.854,1.202-1.439h0.054c0.005,0.365,0.019,0.729,0.045,1.099c0.027,0.365,0.05,0.738,0.063,1.116
	L618.542,122.426L618.542,122.426z M603.176,108.194c-0.247-0.04-0.509-0.079-0.792-0.111c-0.283-0.031-0.566-0.049-0.854-0.049
	c-0.698,0.004-1.311,0.12-1.828,0.358c-0.521,0.238-0.972,0.571-1.35,1.008c-0.379,0.438-0.707,0.95-0.981,1.55h-0.055v-2.594
	h-4.429v14.07h4.86v-5.941c0-0.923,0.141-1.711,0.414-2.366c0.274-0.652,0.67-1.157,1.197-1.509
	c0.527-0.347,1.171-0.521,1.927-0.525c0.283-0.005,0.563,0.004,0.832,0.018c0.275,0.02,0.544,0.067,0.814,0.146L603.176,108.194z
	 M580.571,114.055c0.036-0.546,0.153-1.041,0.36-1.485c0.201-0.44,0.494-0.793,0.881-1.059c0.389-0.261,0.874-0.396,1.459-0.4
	c0.645,0.006,1.166,0.141,1.565,0.4c0.396,0.266,0.686,0.617,0.869,1.059c0.181,0.444,0.271,0.939,0.267,1.485H580.571z
	 M590.348,116.809v-0.892c0-0.841-0.076-1.651-0.239-2.426c-0.162-0.778-0.414-1.499-0.761-2.16
	c-0.346-0.657-0.796-1.238-1.35-1.729c-0.555-0.495-1.226-0.878-2.013-1.151c-0.788-0.275-1.701-0.414-2.742-0.418
	c-1.098,0-2.105,0.166-3.023,0.493c-0.914,0.329-1.71,0.808-2.381,1.437c-0.675,0.631-1.197,1.399-1.566,2.31
	c-0.368,0.905-0.559,1.94-0.563,3.106c0.004,1.161,0.216,2.2,0.626,3.108c0.408,0.914,0.984,1.685,1.724,2.318
	s1.603,1.116,2.597,1.444c0.99,0.334,2.07,0.495,3.236,0.5c0.91,0,1.801-0.067,2.669-0.212c0.874-0.145,1.702-0.369,2.489-0.68
	v-3.43c-0.733,0.387-1.467,0.666-2.196,0.832c-0.732,0.171-1.432,0.252-2.098,0.248c-0.792,0.004-1.48-0.086-2.065-0.271
	c-0.586-0.18-1.054-0.469-1.404-0.863c-0.348-0.401-0.57-0.923-0.661-1.566h9.722V116.809z M562.693,115.243
	c0-0.47,0.063-0.913,0.193-1.332c0.131-0.414,0.318-0.788,0.565-1.107c0.252-0.324,0.563-0.576,0.929-0.761
	c0.364-0.186,0.781-0.279,1.256-0.284c0.599,0.005,1.12,0.167,1.562,0.478c0.445,0.315,0.788,0.743,1.036,1.297
	c0.247,0.55,0.369,1.185,0.373,1.898c-0.004,0.689-0.144,1.306-0.409,1.846c-0.266,0.535-0.627,0.965-1.072,1.271
	c-0.444,0.311-0.939,0.473-1.488,0.477c-0.612-0.004-1.14-0.166-1.58-0.479c-0.438-0.315-0.774-0.757-1.009-1.323
	C562.814,116.657,562.693,115.995,562.693,115.243z M573.469,102.171h-4.89v7.994h-0.055c-0.413-0.535-0.872-0.964-1.372-1.273
	c-0.499-0.311-1.04-0.536-1.62-0.666c-0.575-0.136-1.192-0.198-1.841-0.192c-0.778,0.004-1.484,0.139-2.12,0.403
	c-0.635,0.266-1.192,0.636-1.679,1.1c-0.486,0.468-0.896,0.999-1.225,1.605c-0.328,0.604-0.576,1.247-0.747,1.927
	c-0.166,0.681-0.252,1.368-0.252,2.065c0,1.05,0.14,2.03,0.413,2.944c0.279,0.918,0.688,1.724,1.229,2.422
	c0.545,0.701,1.216,1.246,2.017,1.646c0.797,0.396,1.72,0.596,2.77,0.604c0.756-0.005,1.458-0.135,2.109-0.389
	c0.653-0.252,1.222-0.59,1.692-1.017c0.474-0.428,0.819-0.905,1.031-1.431h0.054v2.511h4.483L573.469,102.171L573.469,102.171z
	 M546.03,114.055c0.036-0.546,0.152-1.041,0.36-1.485c0.202-0.44,0.495-0.793,0.881-1.059c0.389-0.261,0.874-0.396,1.459-0.4
	c0.646,0.006,1.166,0.141,1.566,0.4c0.396,0.266,0.685,0.617,0.868,1.059c0.181,0.444,0.271,0.939,0.267,1.485H546.03z
	 M555.807,116.809v-0.892c0-0.841-0.077-1.651-0.238-2.426c-0.163-0.778-0.415-1.499-0.762-2.16
	c-0.346-0.657-0.797-1.238-1.35-1.729c-0.555-0.495-1.226-0.878-2.013-1.151c-0.788-0.275-1.701-0.414-2.742-0.418
	c-1.098,0-2.105,0.166-3.023,0.493c-0.914,0.329-1.71,0.808-2.38,1.437c-0.677,0.631-1.198,1.399-1.567,2.31
	c-0.368,0.905-0.558,1.94-0.563,3.106c0.006,1.161,0.217,2.2,0.627,3.108c0.408,0.914,0.984,1.685,1.724,2.318
	s1.604,1.116,2.597,1.444c0.99,0.334,2.07,0.495,3.237,0.5c0.908,0,1.8-0.067,2.668-0.212c0.873-0.145,1.702-0.369,2.49-0.68v-3.43
	c-0.734,0.387-1.468,0.666-2.197,0.832c-0.732,0.171-1.432,0.252-2.098,0.248c-0.792,0.004-1.48-0.086-2.065-0.271
	c-0.586-0.18-1.054-0.469-1.404-0.863c-0.348-0.401-0.571-0.923-0.661-1.566h9.721V116.809z M526.937,122.426h5.023v-7.589h7.265
	v-3.565h-7.265v-4.132h7.589v-3.563h-12.612V122.426z M506.251,114.055c0.035-0.546,0.152-1.041,0.359-1.485
	c0.202-0.44,0.495-0.793,0.882-1.059c0.389-0.261,0.873-0.396,1.459-0.4c0.645,0.006,1.166,0.141,1.565,0.4
	c0.396,0.266,0.686,0.617,0.869,1.059c0.18,0.444,0.271,0.939,0.266,1.485H506.251z M516.026,116.809v-0.892
	c0-0.841-0.076-1.651-0.238-2.426c-0.161-0.778-0.414-1.499-0.761-2.16c-0.347-0.657-0.797-1.238-1.351-1.729
	c-0.553-0.495-1.226-0.878-2.012-1.151c-0.788-0.275-1.701-0.414-2.742-0.418c-1.099,0-2.105,0.166-3.023,0.493
	c-0.914,0.329-1.71,0.808-2.381,1.437c-0.676,0.631-1.198,1.399-1.566,2.31c-0.369,0.905-0.559,1.94-0.563,3.106
	c0.005,1.161,0.217,2.2,0.626,3.108c0.409,0.914,0.985,1.685,1.724,2.318c0.739,0.634,1.604,1.116,2.599,1.444
	c0.989,0.334,2.069,0.495,3.235,0.5c0.909,0,1.801-0.067,2.669-0.212c0.873-0.145,1.701-0.369,2.489-0.68v-3.43
	c-0.732,0.387-1.468,0.666-2.197,0.832c-0.732,0.171-1.432,0.252-2.098,0.248c-0.792,0.004-1.48-0.086-2.065-0.271
	c-0.585-0.18-1.054-0.469-1.403-0.863c-0.348-0.401-0.571-0.923-0.662-1.566h9.721V116.809z M488.372,115.243
	c0-0.47,0.063-0.913,0.193-1.332c0.131-0.414,0.32-0.788,0.567-1.107c0.252-0.324,0.563-0.576,0.928-0.761
	c0.364-0.186,0.782-0.279,1.255-0.284c0.599,0.005,1.121,0.167,1.563,0.478c0.444,0.315,0.787,0.743,1.034,1.297
	c0.247,0.55,0.369,1.185,0.373,1.898c-0.004,0.689-0.144,1.306-0.408,1.846c-0.267,0.535-0.627,0.965-1.071,1.271
	c-0.446,0.311-0.941,0.473-1.49,0.477c-0.612-0.004-1.139-0.166-1.58-0.479c-0.437-0.315-0.772-0.757-1.007-1.323
	C488.493,116.657,488.372,115.995,488.372,115.243z M499.147,102.171h-4.888v7.994h-0.056c-0.414-0.535-0.873-0.964-1.373-1.273
	c-0.498-0.311-1.038-0.536-1.618-0.666c-0.577-0.136-1.194-0.198-1.843-0.192c-0.777,0.004-1.484,0.139-2.118,0.403
	c-0.637,0.267-1.193,0.636-1.681,1.1c-0.484,0.468-0.896,0.999-1.224,1.605c-0.329,0.604-0.576,1.247-0.748,1.927
	c-0.166,0.681-0.252,1.368-0.252,2.065c0,1.05,0.14,2.03,0.415,2.944c0.278,0.918,0.688,1.724,1.229,2.422
	c0.544,0.701,1.215,1.246,2.017,1.646c0.797,0.396,1.721,0.596,2.769,0.604c0.757-0.005,1.458-0.135,2.111-0.389
	c0.652-0.252,1.22-0.59,1.69-1.017c0.475-0.428,0.819-0.905,1.031-1.431h0.054v2.511h4.483L499.147,102.171L499.147,102.171z
	 M471.385,117.97c0.005-0.45,0.141-0.81,0.396-1.085c0.263-0.274,0.611-0.472,1.055-0.594c0.439-0.126,0.939-0.189,1.492-0.186
	c0.365,0,0.722,0.015,1.067,0.031c0.347,0.02,0.675,0.036,0.985,0.05c0,0.414-0.071,0.819-0.211,1.215
	c-0.136,0.393-0.339,0.747-0.6,1.063c-0.262,0.32-0.576,0.571-0.946,0.756c-0.367,0.189-0.781,0.284-1.24,0.289
	c-0.384,0-0.727-0.064-1.021-0.186c-0.302-0.121-0.536-0.292-0.712-0.521C471.476,118.573,471.39,118.294,471.385,117.97z
	 M481.188,122.426c-0.104-0.554-0.176-1.107-0.217-1.66c-0.036-0.555-0.053-1.106-0.053-1.662v-5.237
	c-0.006-1.072-0.19-1.978-0.541-2.725c-0.355-0.747-0.842-1.346-1.464-1.805c-0.615-0.455-1.326-0.788-2.134-0.999
	c-0.8-0.208-1.656-0.312-2.561-0.306c-1.035-0.006-2.018,0.074-2.939,0.232c-0.927,0.162-1.817,0.414-2.678,0.767l0.081,3.295
	c0.68-0.374,1.398-0.646,2.16-0.812c0.762-0.167,1.534-0.248,2.321-0.244c0.596-0.004,1.131,0.063,1.607,0.203
	c0.48,0.146,0.864,0.393,1.152,0.747c0.288,0.353,0.44,0.847,0.454,1.481c-0.314-0.056-0.676-0.101-1.071-0.137
	c-0.399-0.035-0.796-0.054-1.196-0.054c-0.437-0.005-0.919,0.019-1.44,0.059c-0.519,0.04-1.054,0.117-1.593,0.233
	c-0.546,0.114-1.066,0.284-1.57,0.5c-0.506,0.221-0.954,0.509-1.355,0.86c-0.396,0.354-0.715,0.787-0.945,1.31
	c-0.233,0.519-0.354,1.135-0.359,1.846c0.005,0.762,0.147,1.423,0.433,1.98c0.283,0.558,0.666,1.017,1.157,1.377
	c0.49,0.364,1.053,0.63,1.679,0.811c0.63,0.177,1.296,0.262,1.998,0.262c0.661,0,1.266-0.09,1.796-0.271
	c0.536-0.181,1.021-0.455,1.459-0.829c0.437-0.378,0.837-0.854,1.201-1.439h0.054c0.005,0.365,0.019,0.729,0.045,1.099
	c0.027,0.365,0.051,0.738,0.063,1.116L481.188,122.426L481.188,122.426z M453.831,115.243c0-0.47,0.063-0.913,0.193-1.332
	c0.131-0.414,0.319-0.788,0.567-1.107c0.252-0.324,0.563-0.576,0.927-0.761c0.364-0.186,0.783-0.279,1.256-0.284
	c0.599,0.005,1.121,0.167,1.563,0.478c0.443,0.315,0.787,0.743,1.034,1.297c0.247,0.55,0.369,1.185,0.373,1.898
	c-0.004,0.689-0.144,1.306-0.408,1.846c-0.267,0.535-0.627,0.965-1.071,1.271c-0.445,0.311-0.941,0.473-1.49,0.477
	c-0.612-0.004-1.139-0.166-1.58-0.479c-0.436-0.315-0.772-0.757-1.008-1.323C453.952,116.657,453.831,115.995,453.831,115.243z
	 M464.606,102.171h-4.888v7.994h-0.056c-0.414-0.535-0.873-0.964-1.373-1.273c-0.498-0.311-1.038-0.536-1.619-0.666
	c-0.576-0.136-1.192-0.198-1.842-0.192c-0.777,0.004-1.484,0.139-2.118,0.403c-0.637,0.267-1.193,0.636-1.68,1.1
	c-0.486,0.468-0.896,0.999-1.226,1.605c-0.328,0.604-0.576,1.247-0.747,1.927c-0.166,0.681-0.252,1.368-0.252,2.065
	c0,1.05,0.14,2.03,0.414,2.944c0.278,0.918,0.688,1.724,1.229,2.422c0.544,0.701,1.215,1.246,2.018,1.646
	c0.796,0.396,1.719,0.596,2.768,0.604c0.757-0.005,1.458-0.135,2.111-0.389c0.651-0.252,1.22-0.59,1.691-1.017
	c0.474-0.428,0.819-0.905,1.03-1.431h0.055v2.511h4.482v-20.254H464.606z M445.891,102.496h-4.86v3.564h4.86V102.496z
	 M441.03,122.426h4.86v-14.07h-4.86V122.426z M426.42,122.075c0.474,0.152,0.964,0.278,1.473,0.379
	c0.51,0.099,1.062,0.176,1.656,0.225c0.59,0.05,1.252,0.072,1.976,0.072c0.645,0,1.279-0.04,1.909-0.131
	c0.626-0.085,1.22-0.233,1.777-0.44c0.559-0.212,1.054-0.495,1.484-0.852c0.428-0.359,0.771-0.811,1.013-1.347
	c0.248-0.54,0.373-1.183,0.38-1.931c-0.011-0.761-0.141-1.391-0.401-1.891c-0.261-0.504-0.604-0.909-1.035-1.216
	c-0.427-0.311-0.899-0.555-1.413-0.737c-0.513-0.181-1.025-0.328-1.539-0.441c-0.513-0.117-0.985-0.233-1.414-0.351
	c-0.432-0.112-0.772-0.262-1.034-0.441c-0.262-0.181-0.393-0.423-0.4-0.729c0.005-0.194,0.072-0.356,0.202-0.482
	c0.132-0.126,0.307-0.225,0.521-0.297c0.222-0.072,0.459-0.122,0.726-0.153c0.262-0.026,0.525-0.041,0.792-0.041
	c0.41,0,0.842,0.037,1.292,0.109c0.449,0.066,0.892,0.175,1.322,0.313c0.434,0.141,0.819,0.315,1.166,0.521l0.379-3.375
	c-0.788-0.306-1.599-0.518-2.431-0.639c-0.833-0.117-1.671-0.177-2.513-0.171c-0.566,0-1.134,0.054-1.701,0.16
	c-0.567,0.112-1.107,0.279-1.62,0.514c-0.513,0.229-0.973,0.521-1.372,0.883c-0.4,0.36-0.717,0.788-0.944,1.287
	c-0.234,0.5-0.353,1.071-0.356,1.72c0.009,0.72,0.135,1.318,0.383,1.795c0.247,0.475,0.581,0.86,0.99,1.153
	c0.409,0.298,0.859,0.531,1.351,0.711c0.49,0.176,0.98,0.324,1.473,0.446c0.489,0.121,0.939,0.247,1.351,0.378
	c0.409,0.13,0.738,0.292,0.985,0.495c0.247,0.196,0.378,0.468,0.383,0.801c-0.005,0.318-0.104,0.563-0.288,0.725
	c-0.189,0.167-0.433,0.274-0.729,0.333c-0.298,0.054-0.616,0.081-0.954,0.077c-0.591-0.005-1.157-0.05-1.71-0.146
	c-0.555-0.095-1.071-0.212-1.559-0.359c-0.48-0.148-0.914-0.301-1.297-0.468L426.42,122.075z M425.26,108.194
	c-0.248-0.04-0.509-0.079-0.792-0.111c-0.284-0.031-0.568-0.049-0.855-0.049c-0.698,0.004-1.31,0.12-1.828,0.358
	c-0.521,0.238-0.972,0.571-1.35,1.008c-0.379,0.438-0.707,0.95-0.981,1.55h-0.055v-2.594h-4.428v14.07h4.86v-5.941
	c0-0.923,0.141-1.711,0.414-2.366c0.275-0.652,0.671-1.157,1.197-1.509c0.526-0.347,1.17-0.521,1.927-0.525
	c0.283-0.005,0.563,0.004,0.833,0.018c0.274,0.02,0.544,0.067,0.813,0.146L425.26,108.194z M402.654,114.055
	c0.036-0.546,0.153-1.041,0.36-1.485c0.202-0.44,0.495-0.793,0.882-1.059c0.387-0.261,0.874-0.396,1.458-0.4
	c0.644,0.006,1.167,0.141,1.567,0.4c0.396,0.266,0.684,0.617,0.868,1.059c0.181,0.444,0.271,0.939,0.267,1.485H402.654z
	 M412.431,116.809v-0.892c0-0.841-0.077-1.651-0.24-2.426c-0.162-0.778-0.413-1.499-0.76-2.16c-0.347-0.657-0.796-1.238-1.351-1.729
	c-0.554-0.495-1.225-0.878-2.012-1.151c-0.788-0.275-1.701-0.414-2.742-0.418c-1.098,0-2.105,0.166-3.023,0.493
	c-0.915,0.329-1.71,0.808-2.381,1.437c-0.676,0.631-1.197,1.399-1.565,2.31c-0.37,0.905-0.559,1.94-0.563,3.106
	c0.005,1.161,0.216,2.2,0.625,3.108c0.408,0.914,0.985,1.685,1.724,2.318c0.738,0.635,1.602,1.116,2.597,1.444
	c0.991,0.334,2.07,0.495,3.236,0.5c0.91,0,1.801-0.067,2.67-0.212c0.873-0.145,1.701-0.369,2.489-0.68v-3.43
	c-0.734,0.387-1.468,0.666-2.197,0.832c-0.733,0.171-1.432,0.252-2.097,0.248c-0.792,0.004-1.481-0.086-2.066-0.271
	c-0.585-0.18-1.054-0.469-1.404-0.863c-0.347-0.401-0.571-0.923-0.661-1.566h9.722V116.809z M385.937,122.426h5.537l5.211-14.07
	h-4.834l-2.944,10.021h-0.054l-2.917-10.021h-5.212L385.937,122.426z M378.376,102.496h-4.861v3.564h4.861V102.496z
	 M373.515,122.426h4.861v-14.07h-4.861V122.426z M354.934,122.426h4.861v-5.941c0-1.508,0.257-2.618,0.765-3.335
	c0.504-0.716,1.26-1.07,2.26-1.065c0.445-0.005,0.833,0.103,1.17,0.328c0.333,0.225,0.599,0.599,0.783,1.115
	c0.189,0.519,0.284,1.216,0.288,2.095v6.805h4.861v-8.777c0-0.736-0.1-1.438-0.302-2.105c-0.202-0.67-0.518-1.271-0.945-1.796
	c-0.433-0.526-0.985-0.94-1.669-1.246c-0.68-0.308-1.499-0.464-2.457-0.468c-0.743,0-1.44,0.098-2.099,0.306
	c-0.657,0.207-1.247,0.521-1.765,0.954c-0.518,0.432-0.941,0.979-1.271,1.656h-0.054v-2.594h-4.429L354.934,122.426L354.934,122.426
	z M351.937,103.577h-5.023v10.855c0.006,0.625-0.045,1.215-0.143,1.765c-0.1,0.554-0.271,1.039-0.514,1.463
	c-0.243,0.423-0.572,0.757-0.995,0.995c-0.418,0.242-0.95,0.363-1.588,0.367c-0.64-0.004-1.166-0.125-1.589-0.367
	c-0.419-0.238-0.751-0.572-0.994-0.995c-0.239-0.424-0.41-0.909-0.514-1.463c-0.1-0.55-0.148-1.14-0.145-1.765v-10.855h-5.023
	v11.692c0.004,1.287,0.207,2.403,0.6,3.345c0.396,0.94,0.958,1.72,1.691,2.33c0.729,0.612,1.599,1.063,2.606,1.36
	c1.013,0.297,2.133,0.445,3.367,0.445c1.233,0,2.354-0.148,3.366-0.445c1.009-0.298,1.876-0.748,2.61-1.36
	c0.729-0.61,1.292-1.39,1.688-2.33c0.396-0.94,0.595-2.058,0.599-3.345L351.937,103.577L351.937,103.577z M86.678,94.337H75.442
	v15.842c0,3.82-1.489,5.729-4.468,5.729c-2.452,0-3.678-1.647-3.678-4.943V94.337H56.174v16.347c0,3.708,0.373,6.313,1.123,7.81
	c1.536,3.071,4.457,4.606,8.766,4.606c3.745,0,6.872-1.591,9.381-4.774v4.101h11.235V94.337z M119.373,106.078
	c0-3.633-0.357-6.179-1.07-7.641c-1.54-3.182-4.488-4.774-8.846-4.774c-3.794,0-6.949,1.594-9.465,4.774v-4.101H88.868v28.088
	h11.124V106.64c0-3.895,1.5-5.843,4.5-5.843c2.505,0,3.759,1.667,3.759,5v16.628h11.123L119.373,106.078L119.373,106.078z
	 M121.62,92.255h11.124v-6.86H121.62V92.255z M132.743,94.337H121.62v28.088h11.124V94.582L132.743,94.337L132.743,94.337z
	 M182.57,113.887c-0.337,0.749-0.871,1.348-1.601,1.798c-0.73,0.449-1.471,0.674-2.22,0.674c-0.75,0-1.424-0.326-2.021-0.982
	c-0.601-0.655-0.898-1.413-0.898-2.275c0-2.097,1.666-3.595,5-4.494c1.124-0.3,1.91-0.506,2.359-0.619v2.529
	C183.188,111.829,182.981,112.951,182.57,113.887z M154.651,113.842c-0.898,2.314-2.268,3.472-4.102,3.472
	c-1.386,0-2.5-0.813-3.343-2.436c-0.843-1.625-1.264-3.799-1.264-6.524c0-2.725,0.438-4.872,1.32-6.439
	c0.879-1.566,2.087-2.354,3.623-2.354c1.46,0,2.611,0.766,3.454,2.298c0.843,1.53,1.265,3.619,1.265,6.271
	C155.606,110.295,155.288,112.2,154.651,113.842z M194.03,113.606v-6.517c0-4.344-0.655-7.378-1.966-9.101
	c-2.21-2.884-5.899-4.326-11.067-4.326c-4.605,0-8.896,1.292-12.864,3.877l3.135,5c2.387-1.985,4.7-2.979,6.939-2.979
	c2.276,0,3.938,0.936,4.981,2.803l-4.535,0.953c-4.107,0.859-7.112,2.036-9.017,3.53c-0.953,0.752-1.734,1.567-2.346,2.445
	c0.037-0.5,0.057-1.01,0.057-1.528c0-4.195-1.134-7.594-3.399-10.196s-5.216-3.904-8.848-3.904c-1.909,0-3.55,0.329-4.916,0.982
	c-1.367,0.656-2.78,1.809-4.241,3.455v-3.764h-10.898v35.521h10.898V118.66c1.422,1.648,2.732,2.801,3.932,3.455
	c1.198,0.653,2.604,0.982,4.213,0.982c3.746,0,6.893-1.479,9.438-4.438c0.872-1.014,1.595-2.105,2.169-3.276
	c0.175,1.979,1.006,3.709,2.494,5.193c1.685,1.682,3.65,2.521,5.897,2.521c3.184,0,6.104-1.254,8.764-3.764
	c0,1.123,0.13,2.152,0.394,3.089h11.796C194.367,120.291,194.03,117.351,194.03,113.606z M244.814,105.91
	c0-3.782-0.433-6.424-1.293-7.921c-1.65-2.884-4.54-4.326-8.665-4.326c-4.089,0-7.296,1.594-9.623,4.774
	c-1.424-3.182-4.106-4.774-8.043-4.774c-4.201,0-7.446,1.594-9.734,4.774v-4.101h-11.123v28.088h11.123v-15.939
	c0-1.575,0.113-2.684,0.341-3.321c0.565-1.576,1.792-2.366,3.679-2.366c1.435,0,2.435,0.563,3.001,1.688
	c0.302,0.603,0.453,1.973,0.453,4.111v15.827h11.124v-15.954c0-1.422,0.132-2.49,0.397-3.202c0.608-1.646,1.824-2.472,3.648-2.472
	c1.443,0,2.471,0.562,3.078,1.686c0.343,0.639,0.515,1.817,0.515,3.539v16.403h11.123L244.814,105.91L244.814,105.91z
	 M294.586,113.887c-0.337,0.749-0.871,1.348-1.601,1.798c-0.731,0.449-1.47,0.674-2.219,0.674c-0.75,0-1.425-0.326-2.021-0.982
	c-0.6-0.655-0.899-1.413-0.899-2.275c0-2.097,1.665-3.595,5-4.494c1.122-0.3,1.91-0.506,2.358-0.619v2.529
	C295.204,111.829,294.997,112.951,294.586,113.887z M266.667,113.842c-0.897,2.314-2.266,3.472-4.101,3.472
	c-1.385,0-2.5-0.813-3.342-2.436c-0.843-1.625-1.265-3.799-1.265-6.524c0-2.725,0.439-4.872,1.319-6.439
	c0.88-1.566,2.087-2.354,3.624-2.354c1.461,0,2.613,0.766,3.455,2.298c0.843,1.53,1.264,3.619,1.264,6.271
	C267.622,110.295,267.304,112.2,266.667,113.842z M306.047,113.606v-6.517c0-4.344-0.656-7.378-1.968-9.101
	c-2.209-2.884-5.896-4.326-11.065-4.326c-4.606,0-8.896,1.292-12.865,3.877l3.134,5c2.388-1.985,4.7-2.979,6.939-2.979
	c2.276,0,3.938,0.936,4.981,2.803l-4.535,0.953c-4.107,0.859-7.113,2.036-9.018,3.53c-0.953,0.752-1.735,1.567-2.345,2.445
	c0.036-0.5,0.056-1.01,0.056-1.528c0-4.195-1.133-7.594-3.399-10.196s-5.215-3.904-8.847-3.904c-1.911,0-3.549,0.329-4.916,0.982
	c-1.368,0.656-2.781,1.809-4.241,3.455v-3.764H247.06v35.521h10.897V118.66c1.423,1.648,2.733,2.801,3.933,3.455
	c1.197,0.653,2.603,0.982,4.213,0.982c3.745,0,6.891-1.479,9.438-4.438c0.873-1.015,1.597-2.106,2.169-3.278
	c0.176,1.979,1.004,3.711,2.493,5.195c1.686,1.682,3.652,2.521,5.898,2.521c3.184,0,6.104-1.254,8.764-3.764
	c0,1.123,0.13,2.152,0.392,3.089h11.799C306.384,120.291,306.047,117.351,306.047,113.606z"/>
</svg>
